<?xml version="1.0" encoding="UTF-8"?>
<svg id="Layer_1" xmlns="http://www.w3.org/2000/svg" version="1.1" viewBox="0 0 208.07 202.07">
  <!-- Generator: Adobe Illustrator 30.0.0, SVG Export Plug-In . SVG Version: 2.1.1 Build 123)  -->
  <defs>
    <style>
      .st0 {
        fill: #a7b9a9;
      }

      .st1 {
        fill: #8a8192;
      }

      .st2 {
        fill: #7c9ca0;
      }

      .st3, .st4 {
        fill: #f88dd5;
      }

      .st5 {
        fill: #8bd2d1;
      }

      .st6 {
        fill: #cfe9ed;
      }

      .st7 {
        fill: #b7f0ad;
      }

      .st8 {
        fill: none;
        stroke: #231655;
        stroke-width: 5px;
      }

      .st8, .st4, .st9 {
        stroke-miterlimit: 10;
      }

      .st10 {
        fill: #7c476b;
      }

      .st11 {
        fill: #fff;
      }

      .st12 {
        fill: #9b82f9;
      }

      .st13 {
        fill: #f9f6ac;
      }

      .st14 {
        fill: #582ff5;
      }

      .st15, .st9 {
        fill: #231f20;
      }

      .st16 {
        fill: #24415f;
      }

      .st4, .st9 {
        stroke: #231f20;
      }

      .st17 {
        fill: #342180;
      }

      .st18 {
        fill: #f67e6e;
      }

      .st19 {
        fill: #f0e92f;
      }

      .st20 {
        fill: #ba6aa0;
      }

      .st21 {
        fill: #fcd1ee;
      }

      .st22 {
        fill: #7959f7;
      }
    </style>
  </defs>
  <circle class="st12" cx="104.69" cy="101.56" r="76.3"/>
  <path class="st21" d="M115.81,113.61s-3.91,3.23-16.51,1.87-18.38-5.45-18.38-5.45c0,0-6.81-6.62-6.81-16,0-.51-1.36-8.85-3.4-13.79-.9-2.17-1.01-5.31-.85-8.13.28-4.87,3.72-8.98,8.48-10.03,4.48-.99,10.62-.86,17.55,3.35,0,0,7.49,5.79,12.94,4.09s9.36,4.26,9.36,4.26c0,0,4.6,11.91,5.28,12.77s2.72,5.28,1.36,6.98-9.02,4.6-9.02,4.6c0,0,4.77,6.3,0,15.49Z"/>
  <path class="st21" d="M73.55,94.56s-10.72,6.97-17.36,21.78c-6.64,14.81-4.09,37.62-4.09,37.62,0,0,13.45,19.91,43.57,21.11,0,0,12.43-11.23,9.53-30.64s-3.06-14.13-3.06-14.13c0,0-.87-9.76,2.21-11.91,3.08-2.15,10.89-4.26,10.89-4.26l-41.7-19.57Z"/>
  <g>
    <path class="st3" d="M106.24,154.77s11.74-1.53,9.32,8.55-5.11,10.6-5.11,10.6l-8.94,1.15s-.13-4.43,2.3-6.62c0,0-2.3,2.53-4.21,3.04,0,0,6.26-11.74,6.64-16.72Z"/>
    <path class="st15" d="M106.24,154.77c8.46-.94,11.73,3.26,9.01,11.3-.97,2.94-1.74,6.35-4.46,8.23-.15.09-.49.12-.68.15-1.02.15-2.94.39-3.98.53-.31.03-4.91.63-5.1.65-.01-.81.02-1.63.14-2.41.28-1.87.89-3.74,2.34-5.09,0,0,.63.63.63.63-1.3,1.3-2.61,2.57-4.44,3.14,0,0-.92.25-.92.25,2.88-5.57,6.17-11.17,7.45-17.37h0ZM106.24,154.77c-.75,6.01-3.73,11.5-6.28,16.91,0,0-.46-.58-.46-.58.74-.23,1.46-.7,2.12-1.22.66-.52,1.3-1.12,1.87-1.73l.63.63c-.8.75-1.33,1.78-1.65,2.87-.31,1.09-.47,2.28-.46,3.4,0,0-.55-.47-.55-.47,2.37-.33,6.17-.79,8.51-1.08.16-.03.46-.04.44-.07,2.32-1.69,3.14-4.97,4.06-7.6,2.89-7.68-.15-11.42-8.22-11.07h0Z"/>
  </g>
  <g>
    <path class="st3" d="M103.12,120.77s10.85,9.7,11.23,11.74c0,0,2.55-3.59,7.4-6.58,4.85-2.99,4.85,5.05,4.85,5.05,0,0-6.89,10.98-11.74,12.77s-13.53-9.19-13.53-9.19l1.79-13.79Z"/>
    <path class="st15" d="M103.12,120.77c3.93,3.51,8.19,6.84,11.32,11.12.08.18.16.38.23.57l-.58-.13c.97-1.32,2.07-2.48,3.26-3.57,5.04-4.64,9.27-6.47,9.74,2.36-3.24,4.75-6.6,10.2-11.83,12.95-5.01,1.8-11.25-5.91-14.15-9.33,0,0-.08-.1-.08-.1l.02-.12c.65-4.69,1.45-9.29,2.08-13.75h0ZM103.12,120.77c-.62,4.38-.89,10.3-1.56,13.61,2.62,2.95,9.09,10.42,13.35,8.85,4.87-2.65,8.16-8.04,11.3-12.5,0,0-.07.25-.07.25-.04-1.49-.25-3.13-.98-4.34-.84-1.44-2.36-.91-3.53-.11-2.77,1.77-5.36,3.97-7.34,6.6-.2-.41-.39-.97-.66-1.34-3.06-4.05-6.9-7.46-10.51-11.02h0Z"/>
  </g>
  <g>
    <path class="st13" d="M116.26,109.69s-11.74,1.18-28.85-7.5c0,0-6.3-.92-6.08,5.67.04,1.13.62,2.19,1.57,2.82,3.8,2.48,15.41,8.46,33.36,3.51v-4.5Z"/>
    <path class="st13" d="M87.43,111.96s4.84,11.07,2.8,14.04-7.43,9.72-8.9,13.44c-1.6,4.07-2.59,10.71-2.59,11.99s.09,14.55,2.09,21.19c0,0,11.7,2.81,16.04,2.04,0,0,9.19-8.56,9.96-22.15s-3.57-22.78-3.57-22.78c0,0-2.04-13.87,10.72-15.49,0,0-20.4-1.91-26.54-2.28Z"/>
  </g>
  <path class="st16" d="M125.24,93.93s-4.01,4.44-8.13,6.09c0,0,2.47,6.28-.06,9.93,0,0-15.82.54-27.37-6.97,0,0,9.68-.3,13.51-3.19,3.83-2.89,21.39-7.92,22.05-5.86Z"/>
  <circle class="st4" cx="95.27" cy="84.26" r="8.94"/>
  <path class="st20" d="M102.95,87.7c-1.13,2.48-3.44,4.35-6.33,4.83-4.63.77-9.01-2.37-9.78-7.01-.43-2.59.37-5.11,1.96-6.96-.69,1.49-.95,3.2-.66,4.93.77,4.64,5.15,7.78,9.79,7.01,2.02-.33,3.77-1.37,5.02-2.8Z"/>
  <g>
    <path class="st3" d="M119.01,74.56s7.88,2.57,4.8,11.8l-4.8-11.8Z"/>
    <path class="st15" d="M119.01,74.56c4.42,1.13,6.81,5.85,5.74,10.17-.23.97-.6,2.18-.87,3.15-1.68-4.01-3.44-9.2-4.88-13.33h0ZM119.01,74.56c1.8,4.03,3.65,7.64,5.25,11.61,0,0-.93.03-.93.03,1.65-4.75.41-9.37-4.33-11.64h0Z"/>
  </g>
  <circle class="st9" cx="95.25" cy="84.08" r="3.1"/>
  <circle class="st11" cx="94.07" cy="82.94" r="1.17"/>
  <ellipse class="st11" cx="92.15" cy="80.46" rx="1.97" ry="1.76" transform="translate(-29.08 64.08) rotate(-33.43)"/>
  <polygon class="st15" points="102.45 169.65 106.57 165.3 102.83 169.98 102.45 169.65 102.45 169.65"/>
  <ellipse class="st15" cx="115.05" cy="89.15" rx=".91" ry="1.68" transform="translate(-12.66 158.96) rotate(-66.43)"/>
  <ellipse class="st15" cx="121.77" cy="87.53" rx="1.31" ry=".71" transform="translate(-17.54 143.04) rotate(-57.44)"/>
  <path class="st3" d="M71.8,66.95c-.25,1.73-1.21,10.8,6.09,14.18,0,0-2.39,18.41,4.08,23.43,0,0-.94,2.68-.77,4.55,0,0-5.87-4.41-6.72-13l-.93-6.85s-3.58-9.15-3.75-13.49c-.15-3.73,1.47-7.78,1.93-8.84.02-.04.08-.02.07.02Z"/>
  <path class="st19" d="M81.97,104.57s-.88,2.06-.64,3.29c0,0,4.94,4.27,11.99,6.1,0,0,5.94,2.04,10,2.14s5.65-.27,5.65-.27c0,0,3.69-.55,7.29-2.23v-1.36s-4.2,1.49-7.51,1.72c-3.32.23-7.73-.49-7.73-.49,0,0-3.72-.49-6.48-1.5s-5.53-2.07-6.89-3.01-4.35-2.39-5.66-4.39Z"/>
  <path class="st22" d="M124.25,92.69l.28-1.63s-7.57,1.22-10.81,2.45c-2.97,1.12-5.29,1.77-6.57,2.21s-8.8,3.45-8.8,3.45c0,0-2.38,1.09-4.42,1.34s-7.21.28-7.21.28c0,0-1.81.44-.97,1.45s3.93,2.92,3.93,2.92l4.7,2.39s5.3,2.04,6.19,2.19,6.03,1.25,7.87,1.24,6.03.07,6.61,0l1.96-.11.05-1.08s-6.17.38-8.31.14-5.87-.93-5.87-.93c0,0-4.06-1.03-5.51-1.44s-6.14-2.94-6.14-2.94c0,0-3.68-2.22-4.01-2.63,0,0,3.61.12,5.31-.23s3.94-.53,7.79-2,9.15-3.55,9.15-3.55c0,0,6.53-2.83,11.18-3.32,3.8-.4,3.61-.19,3.61-.19Z"/>
  <path class="st22" d="M91.03,100.89s1.14-3.58-2.05-2.81c-.2.05-.39.1-.57.17-2.35.84-3.57,3.42-3.11,5.88.34,1.85,1.23,3.79,3.58,1.08.34-.39.62-.84.83-1.32l1.32-3Z"/>
  <path class="st15" d="M89.83,99.98c-1.5,1.33-2.57,2.97-2.43,5.06-1.68-1.85.03-5.06,2.43-5.06h0Z"/>
  <path class="st18" d="M108.14,106.12s-3.72-1.54-6.53-1.32-3.78.99-3.78.99c0,0,8.1,3.6,16.41,3.6,0,0,1.14-3.24-2.89-4.7-4.03-1.46-5.95-.93-5.95-.93,0,0,1.86,1,2.74,2.35Z"/>
  <path class="st19" d="M87.51,112.86s1.82,3.88,1.9,4.24,3.68,4.78-3.31,14.53c0,0-.55.69-.97,1.44,0,0,6.59,11.95,21.63,12.17,0,0-.3-3.08-.51-4.48s-3.07-11.66-3.07-11.66c0,0-.47-6.34,2.39-9.84,2.82-3.46,4.3-3.74,4.18-3.81l-22.23-2.6Z"/>
  <path class="st15" d="M99.6,121.26c.01-.06.09-.12.16-.15.08-.04.34-.16.43-.21,2.84-1.34,5.5-2.94,8.2-4.52,0,0,.08.06.08.06-.31.87-1.01,1.5-1.7,2.01-1.8,1.14-3.9,1.77-5.91,2.45-.31.09-.83.25-1.14.34-.02-.09-.08-.04-.14.01h0Z"/>
  <path class="st15" d="M101.01,115.88c8.51,1.15,17.48-1.59,22.98-8.37-.61.89-1.17,1.85-1.9,2.66-5,5.97-13.76,7.95-21.08,5.72h0Z"/>
  <path class="st19" d="M106.5,155.24s-1.83,5-11.31,7.84c0,0,.02,2.7-.03,4.07s-.3,3.14-.3,3.14l-.61,5.15,2.47-.1s5.86-6.51,7.47-10.43,2.31-9.68,2.31-9.68Z"/>
  <path class="st15" d="M105.62,118.82c-1.82,3.32-2.68,7.27-1.83,10.99.8,3.75,1.79,7.47,2.83,11.16,1.59,8.97,1,20.83-4.63,28.34-1.41,1.94-3.5,4.24-4.93,6.2,0,0-.03.04-.03.04,0,0-.05,0-.05,0l-2.72-.1,2.72-.1s-.08.04-.08.04c.01-.01,2.13-3.09,2.14-3.1,1.68-2.17,3.38-4.41,4.51-6.86,2.06-5.05,2.83-10.65,2.86-16.09.02-2.68-.24-5.67-.67-8.15-1.04-3.71-1.91-7.46-2.56-11.26-.75-3.83.34-7.89,2.44-11.1h0Z"/>
  <path class="st3" d="M53.76,128.43s-2.64,15.06,1.19,29.19c0,0,8.09,7.4,14.04,10.3l4.43-6.47s-20.68-2.47-19.66-33.02Z"/>
  <g>
    <path class="st21" d="M67.53,166.86s8.73,10.13,26.54,10.38c0,0,4-20.38-4.24-24.18,0,0-12.24-4.68-22.3,13.8Z"/>
    <path class="st15" d="M67.53,166.86c4.79,4.66,11.1,7.52,17.57,8.97,1.72.34,3.63.61,5.37.78,1.2.11,2.41.12,3.61.19l-.44.36c.98-6.2,2.9-22.02-5.06-23.97-9.31-1.66-16.79,6.21-21.04,13.68h0ZM67.53,166.86c4.02-7.94,11.43-16.16,21.21-14.54,8.9,1.99,6.94,18.66,5.7,25.39-9.83-.2-20.11-3.48-26.91-10.85h0Z"/>
  </g>
  <path class="st3" d="M79.57,174.04s1.24-7.36,6.11-11.57c0,0-1.04,11.46.03,13.4,0,0-3.54-.67-6.15-1.83Z"/>
  <path class="st15" d="M82.09,175.74c.29-4.53,1.08-9.21,3.44-13.13-1.88,4.08-2.14,8.69-1.94,13.1,0,0-1.5.03-1.5.03h0Z"/>
  <path class="st3" d="M73.36,94.11s-1.96,12.31,14,18.53c0,0,1.51,3.02,2.11,4.47,0,0-11.93-4.62-16.31-11.32s-4.48-6.77-4.48-6.77l4.68-4.9Z"/>
  <path class="st14" d="M58.09,110.99s4.51-3.4,6.47-.51.6,6.98,1.28,8.51,1.53,2.55,3.4,2.21,3.66-1.53,3.66-2.55.17-1.79-.77-2.98-1.19-1.36-1.62-2.21-.43-1.11-.43-1.96v-2.55c0-.77-.34-2.04-.68-2.64s-.94-1.36-1.45-2.04-1.53-1.36-1.79-1.53-.67-.6-.67-.6l-7.41,8.85Z"/>
  <path class="st5" d="M50.34,129.27s.17,5.29,4.94,3.76,6.64,1.68,6.64,1.68c0,0,4.6,2.92,6.13-1.51s.51-5.97-1.7-6.65-3.23-.65-3.74-1.86-.68-7.05-.85-7.7-3.74-3.69-5.62-.72-4.6,8.72-5.79,12.99Z"/>
  <path class="st14" d="M52.93,137.09s5.96,1.49,7.32,5.77,6.13,3.08,6.13,3.08c0,0,8-1.87,5.45,2.55s-.68,4.14-4.77,4.8-3.07-1.39-4.43-2.58-2.88-1.89-4.93-1.14c-1.24.45-3.74,3.73-3.74,3.73,0,0-1.36-10.06-1.02-16.2Z"/>
  <g>
    <path class="st6" d="M74.11,94.75s-16.85,12.98-20.17,30.11,0,30.91,0,30.91c0,0-3.06-3.64-5.85-4.21s.49-7.73.49-7.73l-1.74-.9c-.36-.18-.58-.55-.6-.95-.04-1.53.07-5.29,2.08-6.9,0,0-3.26-1.98-3.32-2.81s4.4-6.19,4.4-6.19c0,0-2.04-1.98-2.23-2.94s4.72-6.06,4.72-6.06c0,0-1.6-2.49-1.6-3.51s5.81-4.91,5.81-4.91c0,0-.96-2.62-.96-3.38s6.64-3.17,6.64-3.17c0,0-.51-2.83-.51-3.34s5.3-2.17,6.77-1.79c0,0-.51-2.62-.32-3s4.4-.77,6.38.77Z"/>
    <path class="st15" d="M74.11,94.75c-8.36,7.37-15.68,16.68-19,27.42-2.67,10.87-2.83,22.52-.69,33.48,0,0,.39,1.88.39,1.88-1.63-1.89-3.4-3.93-5.65-5.06-.41-.2-.88-.36-1.31-.46-1.92-.62-1.44-3.1-1.08-4.58.34-1.32.8-2.57,1.36-3.81l.22.66-1.17-.6c-.72-.31-1.43-.8-1.43-1.68-.03-1.66.1-3.32.67-4.9.31-.88.82-1.75,1.6-2.39,0,0,.05.82.05.82-1.19-.8-2.54-1.53-3.4-2.74-.35-.45.02-1.2.24-1.53,1.22-1.96,2.69-3.71,4.12-5.47,0,0,.04.68.04.68-.86-.91-1.82-1.79-2.32-3.01-.13-.25-.02-.78.15-1.06,1.27-2.12,3.01-3.84,4.65-5.63,0,0-.06.62-.06.62-.66-1.14-1.46-2.3-1.67-3.66-.05-.23.15-.69.26-.81,1.63-1.93,3.76-3.2,5.76-4.64,0,0-.19.59-.19.59-.38-1.16-.86-2.28-.99-3.53,0-.03.02-.19.05-.28.13-.29.34-.42.54-.57,2.01-1.23,4.21-1.98,6.38-2.81,0,0-.32.56-.32.56-.17-1.14-.37-2.25-.44-3.41-.02-.03.05-.29.09-.3.09-.13.16-.17.22-.22,1.3-.75,2.76-1.03,4.2-1.36.88-.14,1.74-.34,2.73-.16l-.3.28c-.12-1.04-.42-2.05-.23-3.11.28-.29.46-.22.67-.29,1.98-.24,4.2-.07,5.86,1.13h0ZM74.11,94.75c-1.78-1.13-4.28-1.26-6.24-.69-.05,1.05.29,2.17.48,3.21-.91-.2-1.88,0-2.84.23-1.28.33-2.81.77-3.85,1.43,0,.02.06-.18.04-.15.13,1.08.38,2.17.58,3.24,0,0,.08.41.08.41-2.25.93-4.73,1.62-6.73,2.99-.03.02-.01.02,0-.01.03-.03.02-.14.02-.11.14,1.07.57,2.15.93,3.2,0,0,.13.37.13.37-1.68,1.15-3.38,2.33-4.89,3.65-.4.32-.79.78-1.02,1.07.2,1.16.92,2.21,1.52,3.24,0,0,.21.33.21.33-1.69,1.88-3.66,3.69-4.85,5.91.41,1.1,1.55,2.09,2.4,2.99-1.57,1.99-3.39,3.96-4.56,6.18.83,1.14,2.43,1.98,3.65,2.79-2.14,1.46-2.45,4.36-2.43,6.78-.02.26.06.56.32.68,0,0,.58.3.58.3.28.15,1.32.68,1.59.82-.64,1.49-2.94,6.59-1.11,7.45,2.53.63,4.49,2.53,6.2,4.4,0,0-.87.44-.87.44-2.19-11.23-2.03-22.88.7-33.99,3.21-11.06,11.05-20.15,19.96-27.15h0Z"/>
  </g>
  <path class="st5" d="M76,62.8s.34,5.02,3.36,3.83,4.43-.09,4.43-.09c0,0,.13,4.21,2,3.02s4.55-2.26,5.45-1.32-.81,1.66,1.66,2.72,2.6-1.15,5.53.55c2.94,1.7,1.11,2.72,3.53,3.23s4.13-1.11,5.74,1.74,4.35.93,4.77-.85c.5-2.13-4.03-5.86-4.92-6.16s-3.21-.07-3.21-.07l-4.42-1.13-7.49-4.43s-11.96-3.4-16.43-1.06Z"/>
  <path class="st15" d="M117.05,109.69c-10.33,1.16-21.3-1.41-29.71-7.66,0,0,2.33-.05,2.33-.05,9.32-.27,17.46-5.62,26.29-8.06,2.87-.76,5.92-1.72,8.94-1.18.3.08.55.15.84.37,0,0-1.03,1.09-1.03,1.09-.3-.24-.53-.9-.46-1.26.34-1.69-.09-3.21-.69-4.8-1.45-3.66-3.65-7.1-5.2-10.77-1.11-3.58-3.82-6.82-7.72-7.29-1.5-.3-2.88.2-4.4.21-1.55-.08-3.25-.07-4.7-.84-.8-.43-1.84-1.12-2.62-1.58-6.52-4-14.73-6.62-22.23-4.19-5.79,1.83-7.49,8.78-5.89,14.1.99,3.86,1.46,7.84,2.81,11.62-.99-1.75-1.75-3.63-2.46-5.52-9.91-24.47,13.44-27.62,29.83-16.51,1.16.81,2.35,1.33,3.83,1.33,2.2.31,3.88-.48,6.04-.11,3.22.45,6.12,2.52,7.66,5.37,1.25,2.74,2.37,5.5,3.83,8.16,1.64,3.33,4.05,7,3.41,10.93.01.16-.04-.02.03.1,0,0-1.03,1.09-1.03,1.09-2.5-.55-5.73.4-8.37,1.12-5.96,1.62-11.49,4.61-17.38,6.43-3,.89-6.08,1.62-9.3,1.69l.42-1.36c7.97,5.04,17.42,7.96,26.94,7.58h0Z"/>
  <path class="st15" d="M83.43,81.77c0-4.84,3.46-9.94,8.57-10.47,3.64-.38,7.59.42,10.17,3.16.85.84,1.61,1.75,2.24,2.75-.88-.78-1.77-1.53-2.72-2.19-2.69-2.1-6.22-2.59-9.5-2.24-4.66.5-7.55,4.69-8.77,8.98h0Z"/>
  <ellipse class="st1" cx="89.71" cy="164.71" rx="1.32" ry="1.85" transform="translate(-95.51 194.22) rotate(-70.48)"/>
  <ellipse class="st6" cx="71.99" cy="141.94" rx="2.17" ry="2.83" transform="translate(-85.85 162.36) rotate(-70.48)"/>
  <ellipse class="st13" cx="80.33" cy="157.63" rx="1.11" ry="1.44" transform="translate(-95.08 180.67) rotate(-70.48)"/>
  <ellipse class="st19" cx="64.97" cy="157.09" rx="1.94" ry="2.53" transform="translate(-104.8 165.83) rotate(-70.48)"/>
  <ellipse class="st19" cx="79.88" cy="119.67" rx="2.83" ry="2.17" transform="translate(-49.14 55.97) rotate(-30)"/>
  <ellipse class="st19" cx="115.23" cy="79.23" rx="1.51" ry="1.55"/>
  <ellipse class="st13" cx="80.59" cy="94.66" rx="1.51" ry="2.24"/>
  <g>
    <path class="st14" d="M131.42,100.58c5.17-1.19,9.88-2.94,9.88-2.94.18-.07.49-.18.88-.33.36-.14.86-.34,1.46-.58.41-.17.87-.36,1.37-.58.61-3.75,1.98-8.01,5.76-9.44,1.13-.43,2.27-.58,3.39-.44,5.27.64,7.99,8.09,8.89,10.5.63,1.69.95,3.12,1.12,3.96.07.3.14.6.21.9.76,3.26,1.06,6.43,1.16,7.46.11,1.1.22,2.53.27,4.21,0,.4.02.8.02,1.2,0,.33,0,.67,0,1.01-.03,2.04-.18,3.97-.43,5.79-.19,1.65-.56,3.31-1.32,4.78-1.51,2.9-4.62,4.51-7.87,4.12-.4-.05-.8-.13-1.18-.24-3.89-1.1-5.38-4.62-6.01-6.12-.05-.11-.09-.21-.13-.32,0,0-.04,0-.08,0-3.68-.47-6.99-.48-10.01-.48-.27,0-.5,0-.55,0-.4,0-1.85,0-3.98.07-1.17.04-2.61.09-4.27.18.18.95.45,1.87.81,2.73.35.83.79,1.69,1,2.54-3.13,1.46-6.76,2.82-10.18,3.32-2.07.3-2.17.39-2.8-1.75-.79-2.69-1.34-5.58-2.71-8.02-1.06-1.89-2.77-4.6-2.49-6.88-.06-1.19.01-2.37.18-3.54.22-1.57.62-3.12,1.08-4.64.21-.7,1.03-4.59,1.95-4.63,3.66-.18,8.75-.69,11.48-1.18,1.21-.21,2.48-.49,2.48-.49s.31-.07.64-.14Z"/>
    <path class="st10" d="M122.92,118.59c-.56,3.32-.5,6.9.55,9.94,1.67-.24,3.37-.86,4.99-1.47-1.02-2.45-1.46-5.25-1.23-8.04-1.56,0-2.76-.42-4.31-.43Z"/>
    <path class="st19" d="M116.54,112.04c-.41,3.15-.12,6.75,2.33,9.45,0,0,4.65-.5,10.76-.83,9.3-.5,21.98-.59,26.77,2.1l-1.06-14.71-.99-13.71s-9.94,6.71-25.48,9.52c-3.2.58-6.64.99-10.27,1.15,0,0-1.57,3.17-2.07,7.03Z"/>
    <path class="st6" d="M116.54,112.04c13.03,1.1,26.26-.27,38.8-3.99l-.99-13.71s-9.94,6.71-25.48,9.52c-3.2.58-6.64.99-10.27,1.15,0,0-1.57,3.17-2.07,7.03Z"/>
    <path class="st3" d="M162.69,122.06c-.25,1.45-.59,2.94-1.7,4.08-1.11,1.14-3.19,1.83-5.14,1.28-2.41-.68-3.53-2.78-4.3-4.6-3.02-7.13-5.03-14.46-4.32-21.63.31-3.11.58-10.45,4.59-11.97,5.39-2.04,8.24,6.32,9.03,9,2.35,8.03,3.18,16.01,1.84,23.84Z"/>
    <path class="st10" d="M148.42,101.85c-.05.84-.08,1.69-.06,2.54,0,0,0,0,0,0,.06,3.62.72,7.23,1.77,10.8.66,2.27,1.48,4.52,2.4,6.73.69,1.66,1.68,3.57,3.73,4.08,1.66.41,3.4-.36,4.31-1.49.91-1.13,1.16-2.55,1.35-3.93.96-7.44.09-14.89-2.07-22.3-.72-2.47-3.31-10.17-7.81-7.94-3.35,1.66-3.42,8.57-3.61,11.51Z"/>
    <path class="st3" d="M118.88,121.49s4.65-.5,10.76-.83c-1.78-5.39-2.05-11.28-.75-16.8-3.2.58-6.64.99-10.27,1.15,0,0-5.18,10.48.26,16.48Z"/>
    <path class="st3" d="M120.8,119.32c-.56,3.32-.5,6.9.55,9.94,1.67-.24,3.37-.86,4.99-1.47-1.02-2.45-1.46-5.25-1.23-8.04-1.56,0-2.76-.42-4.31-.43Z"/>
    <path class="st7" d="M118.22,109.4c.1-1.15.23-2.24.65-3.31,3.04.02,5.96-.2,8.98-.53-.38,1.21-.51,2.49-.4,3.75-3.14.14-6.1-.05-9.24.09Z"/>
    <path class="st7" d="M118.05,111.55c0-.41-.13-.87-.12-1.28,3.18.04,6.32-.02,9.5.02-.03.42-.07.85-.1,1.27-3.09-.02-6.21-.2-9.29-.01Z"/>
    <path class="st11" d="M148.36,104.39s0,0,0,0c.06,3.62.72,7.23,1.77,10.8,2.44-1.2,4.84-2.21,7.28-3.41-.17-2.4-.71-4.55-.73-7.09-2.73-.34-5.56-.49-8.32-.5,0,.07,0,.13,0,.2Z"/>
    <path class="st19" d="M150.35,114c-.6-1.09-.69-2.39-.83-3.61,2.79-.21,4.57-.51,7.29-1.17.09.7.14,1.43.31,2.12-2.14,1.1-4.47,1.98-6.78,2.65Z"/>
    <path class="st0" d="M122.62,118.62c.62-.06,1.29,0,1.85.27.38.19.22.69-.18.69-.67,0-1.35-.05-2.03-.06-.27,0-.78.05-.77-.34.01-.43.83-.53,1.13-.56Z"/>
    <path class="st0" d="M121.56,116.64c.89-.11,2.04-.12,2.87.25.34.15.34.77-.1.79-.45.02-.89-.07-1.33-.1-.48-.03-.95-.02-1.43-.01-.53,0-.52-.86-.01-.92Z"/>
  </g>
  <path class="st3" d="M68.53,167.83s-.48-3.04,3.07-3.52c1.52-.21,1.83-.57,1.69-.92-.31-.75.07-1.64.83-1.92,1.38-.52,3-.66,3.21,1.41.37,3.69-1.27,5.8-1.27,5.8,0,0-.24,3.18-.59,3.46s-4-1.83-6.94-4.32Z"/>
  <path class="st21" d="M81.32,125.18s6.38,12.26,20.55,16.34c0,0,12.89-.89,23.87-13.4,0,0,9.96-.13,13.66-4.6,0,0,3.19-4.72-1.79-5.49,0,0,3.06-2.04,1.15-4.85-.61-.89-1.65-1.39-2.77-1.64-2.83-.64-5.79.25-7.99,2.15s-4.77,4.51-5.3,6.75c0,0-2.2,2.64-6.67,3.69s-12.38,4.37-14.17,7.3c0,0-3.06-6.64-11.49-13.53-8.43-6.89-9.06,7.28-9.06,7.28Z"/>
  <path class="st15" d="M137.68,118.53c-1.76.11-3.64.29-5.2,1.21.68-.62,1.54-1.03,2.4-1.38.87-.34,1.75-.61,2.68-.82l.12.99h0Z"/>
  <ellipse class="st1" cx="103.21" cy="134.67" rx="1.94" ry="1.49" transform="translate(-53.51 69.65) rotate(-30)"/>
  <path class="st3" d="M85.13,133.07s-3.54-4.43-3.41-6.39,2.87.97,2.87.97c0,0,5.6,5.43,7.04,6.34s7.98,4.91,10.02,5.19,12.04-4.12,12.66-4.37,9.83-7.02,10.09-7.4,3.02-1.32,4.23-1.42,7.47-1.56,8.74-2.22,2.45-2.02,2.45-2.02c0,0-.04,1.74-3.09,3.11s-2.11,1.49-5.34,2.04-4.77.47-5.66,1-2.09,1.72-2.09,1.72c0,0-4.06,3.99-6.09,5.19s-4.28,2.71-4.91,2.86-6.66,3.28-10.77,3.43c0,0-4.51-1.47-8.19-3.72s-4.49-3.11-4.49-3.11l-2.51-2.32-.57-.46-1,1.58Z"/>
  <ellipse class="st3" cx="115.9" cy="130.6" rx="1.51" ry="1.55"/>
  <ellipse class="st19" cx="126.16" cy="120.77" rx="1.51" ry="1.55"/>
  <path class="st2" d="M86.57,129.54l-.29,1.89s4.23,3.98,6.07,4.91l.6-1.8-6.38-5Z"/>
  <path class="st6" d="M86.57,129.54s-.13-2.93,3.45-2.93c1.54,0,1.89-.32,1.8-.68-.21-.79.29-1.61,1.08-1.79,1.44-.33,3.07-.25,2.99,1.83-.13,3.7-2.04,5.58-2.04,5.58,0,0-.51,2.77-.89,3s-4.09-1.82-6.38-5Z"/>
  <path class="st15" d="M87.01,116.09c3.4,1.31,6.21,3.81,8.72,6.4,2.48,2.59,4.75,5.6,6.58,8.69,0,0-.84-.03-.84-.03,1.33-1.61,2.92-2.68,4.6-3.68,2.52-1.46,5.23-2.49,8-3.32,3.6-.81,7.22-2.31,9.11-5.64,2.42-4.17,6.6-8.13,11.79-7.62,2.28.14,5.28,2.06,4.86,4.73-.15,1.19-.91,2.3-1.97,2.85,0,0-.07-.91-.07-.91,1.23.52,2.85,1.31,3.11,2.88-.01.97-.03,1.62-.42,2.56-1.16,1.95-3.34,2.79-5.28,3.71-2.36,1.16-5.09,1.47-7.66,1.73-1.52.16-2.55,1.24-3.57,2.3-3,2.92-6.42,5.41-10.13,7.36-3.75,1.96-7.81,3.31-12,3.94-4.07-1.07-7.66-3.18-10.91-5.76-3.18-2.55-5.94-5.58-8.26-8.91,4.68,6.18,12.36,11.63,19.12,13.66,8.11-1.22,15.63-5.32,21.48-11.01.76-.73,1.49-1.63,2.5-2.07.88-.47,2.2-.57,3.18-.68,2.08-.19,3.97-.6,5.85-1.48,1.71-.81,3.75-1.6,4.78-3.23.24-.59.51-1.97.12-2.51-.46-.68-1.4-1.2-2.27-1.55,0,0-.98-.39-.98-.39,0,0,.91-.52.91-.52,1.09-.56,1.63-1.83,1.46-3-.19-.4-.85-1.5-1.55-1.87-2.26-1.46-5.37-.93-7.63.32-1.58.9-2.92,2.21-4.07,3.67-1.21,1.49-1.99,3.32-3.42,4.64-1.41,1.4-3.24,2.37-5.08,2.96-5.28,1.5-11.09,3.21-14.83,7.4,0,0-.46.56-.46.56l-.37-.59c-3.76-5.96-7.95-12.38-14.44-15.61h0Z"/>
  <path class="st17" d="M54.14,137.55s1.28,8.73,3.55,12.07c0,0-2.78,2.2-3.74,3.73,0,0-1.9-12.8-1.02-16.2l1.22.4Z"/>
  <path class="st15" d="M93.86,114.25c-7.15-.68-14.88-4.21-18.59-10.67-2.49-5.02-3.05-11.01-1.13-16.28.63-1.72,1.45-3.38,2.6-4.78-.77,1.63-1.31,3.33-1.66,5.05-1.11,5.09-.32,10.46,1.97,15.11,3.55,6.07,10.3,9.36,16.81,11.57h0Z"/>
  <circle class="st8" cx="103.38" cy="100.51" r="76.3"/>
</svg>