<?xml version="1.0" encoding="UTF-8"?>
<svg id="Layer_1" xmlns="http://www.w3.org/2000/svg" version="1.1" viewBox="0 0 208.07 202.07">
  <!-- Generator: Adobe Illustrator 30.0.0, SVG Export Plug-In . SVG Version: 2.1.1 Build 123)  -->
  <defs>
    <style>
      .st0 {
        fill: #a7b9a9;
      }

      .st1 {
        fill: #9bafb2;
      }

      .st2 {
        fill: #fef499;
      }

      .st3 {
        fill: #8a8192;
      }

      .st4 {
        fill: #f88dd5;
      }

      .st5 {
        fill: #cfe9ed;
      }

      .st6 {
        fill: #b7f0ad;
      }

      .st7 {
        fill: none;
        stroke: #231655;
        stroke-width: 5px;
      }

      .st7, .st8, .st9 {
        stroke-miterlimit: 10;
      }

      .st10 {
        fill: #7c476b;
      }

      .st11 {
        fill: #fff;
      }

      .st12 {
        fill: #f9f6ac;
      }

      .st13 {
        fill: #d8d2fb;
      }

      .st14 {
        fill: #582ff5;
      }

      .st8, .st9 {
        stroke: #231f20;
      }

      .st8, .st15 {
        fill: #7959f7;
      }

      .st16, .st9 {
        fill: #231f20;
      }

      .st17 {
        fill: #24415f;
      }

      .st18 {
        fill: #f67e6e;
      }

      .st19 {
        fill: #f0e92f;
      }

      .st20 {
        fill: #ba6aa0;
      }

      .st21 {
        fill: #b4af23;
      }
    </style>
  </defs>
  <circle class="st2" cx="104.69" cy="101.56" r="76.3"/>
  <g>
    <path class="st13" d="M114.77,114.13s-3.91,3.23-16.51,1.87-18.38-5.45-18.38-5.45c0,0-6.81-6.62-6.81-16,0-.51-1.36-8.85-3.4-13.79-.9-2.17-1.01-5.31-.85-8.13.28-4.87,3.72-8.98,8.48-10.03,4.48-.99,10.62-.86,17.55,3.35,0,0,7.49,5.79,12.94,4.09s9.36,4.26,9.36,4.26c0,0,4.6,11.91,5.28,12.77s2.72,5.28,1.36,6.98-9.02,4.6-9.02,4.6c0,0,4.77,6.3,0,15.49Z"/>
    <path class="st13" d="M72.51,95.09s-10.72,6.97-17.36,21.78c-6.64,14.81-4.09,37.62-4.09,37.62,0,0,13.45,19.91,43.57,21.11,0,0,12.43-11.23,9.53-30.64-2.89-19.4-3.06-14.13-3.06-14.13,0,0-.87-9.76,2.21-11.91s10.89-4.26,10.89-4.26l-41.7-19.57Z"/>
    <g>
      <path class="st15" d="M105.2,155.3s11.74-1.53,9.32,8.55-5.11,10.6-5.11,10.6l-8.94,1.15s-.13-4.43,2.3-6.62c0,0-2.3,2.53-4.21,3.04,0,0,6.26-11.74,6.64-16.72Z"/>
      <path class="st16" d="M105.25,154.79c8.54-.56,11.86,3.71,8.91,11.79-.68,2.21-1.45,4.44-2.75,6.38-.52.74-1.32,1.82-2.37,1.83-.36.04-1.34.16-1.71.21-1.6.21-5.44.65-7.09.86.02-2.5.52-5.22,2.41-7,0,0,.24.25.24.25-1.32,1.33-2.75,2.66-4.61,3.14,2.77-5.57,6.09-11.2,6.96-17.45h0ZM105.2,155.3c-.93,5.96-3.93,11.4-6.52,16.79,0,0-.15-.19-.15-.19.81-.24,1.54-.73,2.22-1.26.68-.54,1.31-1.14,1.9-1.77l.24.25c-1.7,1.64-2.17,4.21-2.19,6.48,0,0-.26-.22-.26-.22,1.51-.21,5.34-.73,6.8-.93.37-.05,1.34-.18,1.7-.23.17-.03.43-.04.48-.09,1.2-.71,1.91-2.23,2.52-3.48,2.88-7.16,5.28-15.15-5.6-14.93-.29.01-.75.04-1.03.07,0,0-.03,0-.03,0,.06,0,.21-.07.27-.15l-.36-.34h0Z"/>
    </g>
    <g>
      <path class="st15" d="M102.08,121.29s10.85,9.7,11.23,11.74c0,0,2.55-3.59,7.4-6.58s4.85,5.05,4.85,5.05c0,0-6.89,10.98-11.74,12.77s-13.53-9.19-13.53-9.19l1.79-13.79Z"/>
      <path class="st16" d="M102.06,121.25c4.11,3.41,8.28,6.79,11.45,11.11.09.19.17.4.24.6l-.8-.18c1.99-2.59,4.48-4.66,7.25-6.33,4.16-2.74,5.48,1.61,5.53,5.06-1.5,2.49-3.21,4.89-5,7.2-1.87,2.27-3.76,4.59-6.51,5.9-4.95,1.91-11.44-5.82-14.28-9.25,0,0-.12-.15-.12-.15l.03-.18c.65-4.6,1.51-9.26,2.22-13.78h0ZM102.09,121.34c-.5,4.67-.82,9.21-1.36,13.8,0,0-.09-.34-.09-.34,1.85,2.16,3.82,4.27,6,6.08,1.99,1.5,4.65,3.8,7.22,2.85,4.91-2.55,8.56-8.12,11.54-12.23,0-3.03-1.22-7.38-4.89-4.57-2.56,1.76-4.95,3.92-6.83,6.36,0,0-.44.58-.44.58l-.36-.75c-.21-.57-.6-1.05-.97-1.53-3-3.62-6.58-6.86-9.81-10.25h0Z"/>
    </g>
    <g>
      <path class="st5" d="M115.22,110.21s-11.74,1.18-28.85-7.5c0,0-6.3-.92-6.08,5.67.04,1.13.62,2.19,1.57,2.82,3.8,2.48,15.41,8.46,33.36,3.51v-4.5Z"/>
      <path class="st5" d="M86.39,112.49s4.84,11.07,2.8,14.04-7.43,9.72-8.9,13.44c-1.6,4.07-2.59,10.71-2.59,11.99s.09,14.55,2.09,21.19c0,0,11.7,2.81,16.04,2.04,0,0,9.19-8.56,9.96-22.15.77-13.59-3.57-22.78-3.57-22.78,0,0-2.04-13.87,10.72-15.49,0,0-20.4-1.91-26.54-2.28Z"/>
    </g>
    <path class="st17" d="M124.2,94.45s-4.01,4.44-8.13,6.09c0,0,2.47,6.28-.06,9.93,0,0-15.82.54-27.37-6.97,0,0,9.68-.3,13.51-3.19,3.83-2.89,21.39-7.92,22.05-5.86Z"/>
    <circle class="st8" cx="94.23" cy="84.78" r="8.94"/>
    <path class="st14" d="M101.91,88.22c-1.13,2.48-3.44,4.35-6.33,4.83-4.63.77-9.01-2.37-9.78-7.01-.43-2.59.37-5.11,1.96-6.96-.69,1.49-.95,3.2-.66,4.93.77,4.64,5.15,7.78,9.79,7.01,2.02-.33,3.77-1.37,5.02-2.8Z"/>
    <path class="st8" d="M117.98,75.08s7.88,2.57,4.8,11.8l-4.8-11.8Z"/>
    <circle class="st9" cx="94.21" cy="84.61" r="3.1"/>
    <circle class="st11" cx="93.04" cy="83.47" r="1.17"/>
    <ellipse class="st11" cx="91.11" cy="80.98" rx="1.97" ry="1.76" transform="translate(-29.54 63.6) rotate(-33.43)"/>
    <polygon class="st16" points="101.41 170.17 105.53 165.83 101.79 170.5 101.41 170.17 101.41 170.17"/>
    <ellipse class="st16" cx="114.01" cy="89.68" rx=".91" ry="1.68" transform="translate(-13.77 158.33) rotate(-66.43)"/>
    <ellipse class="st16" cx="120.73" cy="88.05" rx="1.31" ry=".71" transform="translate(-18.46 142.41) rotate(-57.44)"/>
    <path class="st15" d="M70.76,67.48c-.25,1.73-1.21,10.8,6.09,14.18,0,0-2.39,18.41,4.08,23.43,0,0-.94,2.68-.77,4.55,0,0-5.87-4.41-6.72-13l-.93-6.85s-3.58-9.15-3.75-13.49c-.15-3.73,1.47-7.78,1.93-8.84.02-.04.08-.02.07.02Z"/>
    <path class="st1" d="M80.93,105.09s-.88,2.06-.64,3.29c0,0,4.94,4.27,11.99,6.1,0,0,5.94,2.04,10,2.14s5.65-.27,5.65-.27c0,0,3.69-.55,7.29-2.23v-1.36s-4.2,1.49-7.51,1.72c-3.32.23-7.73-.49-7.73-.49,0,0-3.72-.49-6.48-1.5s-5.53-2.07-6.89-3.01-4.35-2.39-5.66-4.39Z"/>
    <path class="st12" d="M123.21,93.21l.28-1.63s-7.57,1.22-10.81,2.45c-2.97,1.12-5.29,1.77-6.57,2.21s-8.8,3.45-8.8,3.45c0,0-2.38,1.09-4.42,1.34s-7.21.28-7.21.28c0,0-1.81.44-.97,1.45s3.93,2.92,3.93,2.92l4.7,2.39s5.3,2.04,6.19,2.19,6.03,1.25,7.87,1.24,6.03.07,6.61,0l1.96-.11.05-1.08s-6.17.38-8.31.14-5.87-.93-5.87-.93c0,0-4.06-1.03-5.51-1.44s-6.14-2.94-6.14-2.94c0,0-3.68-2.22-4.01-2.63,0,0,3.61.12,5.31-.23s3.94-.53,7.79-2,9.15-3.55,9.15-3.55c0,0,6.53-2.83,11.18-3.32,3.8-.4,3.61-.19,3.61-.19Z"/>
    <path class="st12" d="M89.99,101.42s1.14-3.58-2.05-2.81c-.2.05-.39.1-.57.17-2.35.84-3.57,3.42-3.11,5.88.34,1.85,1.23,3.79,3.58,1.08.34-.39.62-.84.83-1.32l1.32-3Z"/>
    <path class="st16" d="M88.79,100.51c-1.5,1.33-2.57,2.97-2.43,5.06-1.68-1.85.03-5.06,2.43-5.06h0Z"/>
    <path class="st18" d="M107.1,106.64s-3.72-1.54-6.53-1.32-3.78.99-3.78.99c0,0,8.1,3.6,16.41,3.6,0,0,1.14-3.24-2.89-4.7-4.03-1.46-5.95-.93-5.95-.93,0,0,1.86,1,2.74,2.35Z"/>
    <path class="st1" d="M86.47,113.38s1.82,3.88,1.9,4.24,3.68,4.78-3.31,14.53c0,0-.55.69-.97,1.44,0,0,6.59,11.95,21.63,12.17,0,0-.3-3.08-.51-4.48s-3.07-11.66-3.07-11.66c0,0-.47-6.34,2.39-9.84,2.82-3.46,4.3-3.74,4.18-3.81l-22.23-2.6Z"/>
    <path class="st16" d="M98.56,121.78c.01-.06.09-.12.16-.15.08-.04.34-.16.43-.21,2.84-1.34,5.5-2.94,8.2-4.52,0,0,.08.06.08.06-.31.87-1.01,1.5-1.7,2.01-1.8,1.14-3.9,1.77-5.9,2.45-.31.09-.83.25-1.14.34-.02-.09-.08-.04-.14.01h0Z"/>
    <path class="st16" d="M99.97,116.41c8.51,1.15,17.48-1.59,22.98-8.37-.61.89-1.17,1.85-1.9,2.66-5,5.97-13.76,7.95-21.08,5.72h0Z"/>
    <path class="st1" d="M105.47,155.77s-1.83,5-11.31,7.84c0,0,.02,2.7-.03,4.07s-.3,3.14-.3,3.14l-.61,5.15,2.47-.1s5.86-6.51,7.47-10.43,2.31-9.68,2.31-9.68Z"/>
    <path class="st16" d="M104.59,119.34c-1.82,3.32-2.68,7.27-1.83,10.99.8,3.75,1.79,7.47,2.83,11.16,1.59,8.97,1,20.83-4.63,28.34-1.41,1.94-3.5,4.24-4.93,6.2,0,0-.03.04-.03.04h-.05s-2.72-.1-2.72-.1l2.72-.1-.08.04s2.13-3.09,2.14-3.1c1.68-2.17,3.38-4.41,4.51-6.86,2.06-5.05,2.83-10.65,2.86-16.09.02-2.68-.24-5.67-.67-8.15-1.04-3.71-1.91-7.46-2.56-11.26-.75-3.83.34-7.89,2.44-11.1h0Z"/>
    <path class="st1" d="M52.72,128.96s-2.64,15.06,1.19,29.19c0,0,8.09,7.4,14.04,10.3l4.43-6.47s-20.68-2.47-19.66-33.02Z"/>
    <g>
      <path class="st13" d="M66.49,167.38s8.73,10.13,26.54,10.38c0,0,4-20.38-4.24-24.18,0,0-12.24-4.68-22.3,13.8Z"/>
      <path class="st16" d="M66.49,167.38c4.79,4.66,11.1,7.52,17.57,8.97,1.72.34,3.63.61,5.37.78,1.2.11,2.41.12,3.61.19l-.44.36c.98-6.2,2.9-22.02-5.06-23.97-9.31-1.66-16.79,6.21-21.04,13.68h0ZM66.49,167.38c4.02-7.94,11.43-16.16,21.21-14.54,8.9,1.99,6.94,18.66,5.7,25.39-9.83-.2-20.11-3.48-26.91-10.85h0Z"/>
    </g>
    <path class="st15" d="M78.53,174.57s1.24-7.36,6.11-11.57c0,0-1.04,11.46.03,13.4,0,0-3.54-.67-6.15-1.83Z"/>
    <path class="st16" d="M81.05,176.27c.29-4.53,1.08-9.21,3.44-13.13-1.88,4.08-2.14,8.69-1.94,13.1,0,0-1.5.03-1.5.03h0Z"/>
    <path class="st15" d="M72.32,94.63s-1.96,12.31,14,18.53c0,0,1.51,3.02,2.11,4.47,0,0-11.93-4.62-16.31-11.32s-4.48-6.77-4.48-6.77l4.68-4.9Z"/>
    <path class="st16" d="M92.82,114.77c-7.15-.68-14.88-4.21-18.59-10.67-2.49-5.02-3.05-11.01-1.13-16.28.63-1.72,1.45-3.38,2.6-4.78-.77,1.63-1.31,3.33-1.66,5.05-1.11,5.09-.32,10.46,1.97,15.11,3.55,6.07,10.3,9.36,16.81,11.57h0Z"/>
    <path class="st19" d="M57.05,111.51s4.51-3.4,6.47-.51.6,6.98,1.28,8.51,1.53,2.55,3.4,2.21,3.66-1.53,3.66-2.55.17-1.79-.77-2.98-1.19-1.36-1.62-2.21-.43-1.11-.43-1.96v-2.55c0-.77-.34-2.04-.68-2.64s-.94-1.36-1.45-2.04-1.53-1.36-1.79-1.53-.67-.6-.67-.6l-7.41,8.85Z"/>
    <path class="st4" d="M49.3,129.79s.17,5.29,4.94,3.76,6.64,1.68,6.64,1.68c0,0,4.6,2.92,6.13-1.51s.51-5.97-1.7-6.65-3.23-.65-3.74-1.86-.68-7.05-.85-7.7-3.74-3.69-5.62-.72-4.6,8.72-5.79,12.99Z"/>
    <path class="st19" d="M51.89,137.61s5.96,1.49,7.32,5.77,6.13,3.08,6.13,3.08c0,0,8-1.87,5.45,2.55s-.68,4.14-4.77,4.8-3.07-1.39-4.43-2.58-2.88-1.89-4.93-1.14c-1.24.45-3.74,3.73-3.74,3.73,0,0-1.36-10.06-1.02-16.2Z"/>
    <g>
      <path class="st4" d="M72.75,94.82s-16.85,12.98-20.17,30.11,0,30.91,0,30.91c0,0-3.06-3.64-5.85-4.21s.49-7.73.49-7.73l-1.74-.9c-.36-.18-.58-.55-.6-.95-.04-1.53.07-5.29,2.08-6.9,0,0-3.26-1.98-3.32-2.81s4.4-6.19,4.4-6.19c0,0-2.04-1.98-2.23-2.94s4.72-6.06,4.72-6.06c0,0-1.6-2.49-1.6-3.51s5.81-4.91,5.81-4.91c0,0-.96-2.62-.96-3.38s6.64-3.17,6.64-3.17c0,0-.51-2.83-.51-3.34s5.3-2.17,6.77-1.79c0,0-.51-2.62-.32-3s4.4-.77,6.38.77Z"/>
      <path class="st16" d="M72.75,94.82c-8.43,7.37-15.83,16.55-18.99,27.42-2.52,10.87-2.67,22.51-.5,33.43,0,0,.56,2.65.56,2.65l-1.79-2.03c-1.54-1.67-3.34-3.44-5.61-3.99-.23-.06-.48-.17-.69-.34-2.09-1.96-.06-6.18.81-8.38,0,0,.33.97.33.97l-1.17-.61c-.5-.27-1.12-.53-1.35-1.09-.15-.29-.21-.63-.2-.96.03-2.57.27-5.46,2.37-7.29,0,0,.07,1.15.07,1.15-1.1-.71-2.22-1.42-3.15-2.4-.17-.19-.39-.48-.45-.77-.16-.76.45-1.44.81-2.04,1.17-1.7,2.44-3.25,3.73-4.81,0,0,.05.9.05.9-.88-.93-1.84-1.82-2.35-3.08-.06-.13-.09-.44-.02-.72.22-.66.66-1.23,1.04-1.74,1.2-1.56,2.51-2.96,3.85-4.35l-.07.74c-.52-.86-1-1.7-1.38-2.67-.14-.4-.34-.9-.24-1.36.24-.78.86-1.19,1.35-1.67,1.51-1.29,3.1-2.38,4.72-3.46l-.19.57c-.37-1.16-.83-2.29-.95-3.53,0-.03.02-.18.05-.26.06-.13.13-.22.19-.27,2-1.47,4.45-2.11,6.72-3.01,0,0-.24.41-.24.41-.17-1.13-.38-2.24-.46-3.39-.01-.03.04-.23.08-.25.08-.11.13-.14.19-.19,2.08-1.01,4.53-1.74,6.86-1.55,0,0-.24.22-.24.22-.13-1.03-.43-2.04-.26-3.09.26-.27.44-.22.65-.29,1.98-.25,4.2-.08,5.86,1.11h0ZM72.75,94.82c-1.78-1.13-4.28-1.28-6.26-.7-.07.94.22,1.95.38,2.9,0,0,.05.27.05.27l-.29-.05c-2.05-.12-4.75.79-6.4,1.68.14,1.16.4,2.34.61,3.5-2.21.91-4.74,1.71-6.63,3.04.02-.02.02-.12.02-.09.18,1.2.68,2.4,1.09,3.55-1.98,1.43-4.34,2.96-5.83,4.73.26,1.28,1.1,2.45,1.79,3.58,0,0-.32.35-.32.35-1.57,1.8-3.4,3.51-4.51,5.6.04-.04-.03-.11.01-.02.04.12.14.3.26.48.58.87,1.44,1.72,2.21,2.48,0,0-.38.47-.38.47-1.45,1.84-3.18,3.82-4.21,5.75-.02-.03,0-.08-.03-.1,0,0,.02.03.02.03.99,1.18,2.52,1.96,3.82,2.81,0,0-.76.63-.76.63-1.54,1.31-1.82,4.08-1.79,6.16,0,0,0,.16,0,.16,0,.06.02.11.04.17.03.07.09.12.15.15l.57.29c.39.2,1.41.73,1.8.92-.58,1.29-3.09,6.98-1.14,7.39,2.49.7,4.39,2.57,6.09,4.43,0,0-1.23.62-1.23.62-2.16-11.27-1.98-22.93.89-34.04,3.39-10.95,11.11-20.11,19.97-27.14h0Z"/>
    </g>
    <path class="st4" d="M74.96,63.32s.34,5.02,3.36,3.83,4.43-.09,4.43-.09c0,0,.13,4.21,2,3.02s4.55-2.26,5.45-1.32-.81,1.66,1.66,2.72,2.6-1.15,5.53.55c2.94,1.7,1.11,2.72,3.53,3.23s4.13-1.11,5.74,1.74c1.62,2.85,4.35.93,4.77-.85.5-2.13-4.03-5.86-4.92-6.16s-3.21-.07-3.21-.07l-4.42-1.13-7.49-4.43s-11.96-3.4-16.43-1.06Z"/>
    <path class="st16" d="M116.01,110.21c-10.33,1.16-21.3-1.41-29.71-7.66,0,0,2.33-.05,2.33-.05,9.32-.27,17.46-5.62,26.29-8.06,2.87-.76,5.92-1.72,8.94-1.18.3.08.55.15.84.37,0,0-1.03,1.09-1.03,1.09-.3-.24-.53-.9-.46-1.26.34-1.69-.09-3.21-.69-4.8-1.45-3.66-3.65-7.1-5.2-10.77-1.12-3.58-3.82-6.82-7.72-7.29-1.5-.3-2.88.2-4.4.21-1.55-.08-3.25-.07-4.7-.84-.8-.43-1.84-1.12-2.62-1.58-6.52-4-14.73-6.62-22.23-4.19-5.79,1.83-7.49,8.78-5.89,14.1.99,3.86,1.46,7.84,2.81,11.62-.99-1.75-1.75-3.63-2.46-5.52-9.91-24.47,13.44-27.62,29.83-16.51,1.16.81,2.35,1.33,3.83,1.33,2.2.31,3.88-.48,6.04-.11,3.22.45,6.12,2.52,7.66,5.37,1.25,2.74,2.37,5.5,3.83,8.16,1.64,3.33,4.05,7,3.41,10.93.01.16-.04-.02.03.1l-1.03,1.09c-2.5-.55-5.73.4-8.37,1.12-5.96,1.62-11.49,4.61-17.38,6.43-3,.89-6.08,1.62-9.3,1.69l.42-1.36c7.97,5.04,17.42,7.96,26.94,7.58h0Z"/>
    <path class="st16" d="M82.4,82.29c0-4.84,3.46-9.94,8.57-10.47,3.64-.38,7.59.42,10.17,3.16.85.84,1.61,1.75,2.24,2.75-.88-.78-1.77-1.53-2.72-2.19-2.69-2.1-6.22-2.59-9.5-2.24-4.66.5-7.55,4.69-8.77,8.98h0Z"/>
    <ellipse class="st3" cx="88.67" cy="165.23" rx="1.32" ry="1.85" transform="translate(-96.7 193.59) rotate(-70.48)"/>
    <ellipse class="st19" cx="70.95" cy="142.46" rx="2.17" ry="2.83" transform="translate(-87.03 161.73) rotate(-70.48)"/>
    <ellipse class="st12" cx="79.29" cy="158.16" rx="1.11" ry="1.44" transform="translate(-96.27 180.04) rotate(-70.48)"/>
    <ellipse class="st4" cx="63.93" cy="157.61" rx="1.94" ry="2.53" transform="translate(-105.99 165.2) rotate(-70.48)"/>
    <ellipse class="st4" cx="78.84" cy="120.2" rx="2.83" ry="2.17" transform="translate(-49.54 55.52) rotate(-30)"/>
    <ellipse class="st19" cx="76.53" cy="73.34" rx="1.51" ry="1.55"/>
    <ellipse class="st4" cx="114.19" cy="79.75" rx="1.51" ry="1.55"/>
    <ellipse class="st12" cx="79.56" cy="95.18" rx="1.51" ry="2.24"/>
    <g>
      <path class="st14" d="M131.85,100.95c5.17-1.19,9.88-2.94,9.88-2.94.18-.07.49-.18.88-.33.36-.14.86-.34,1.46-.58.41-.17.87-.36,1.37-.58.61-3.75,1.98-8.01,5.76-9.44,1.13-.43,2.27-.58,3.39-.44,5.27.64,7.99,8.09,8.89,10.5.63,1.69.95,3.12,1.12,3.96.07.3.14.6.21.9.76,3.26,1.06,6.43,1.16,7.46.11,1.1.22,2.53.27,4.21,0,.4.02.8.02,1.2,0,.33,0,.67,0,1.01-.03,2.04-.18,3.97-.43,5.79-.19,1.65-.56,3.31-1.32,4.78-1.51,2.9-4.62,4.51-7.87,4.12-.4-.05-.8-.13-1.18-.24-3.89-1.1-5.38-4.62-6.01-6.12-.05-.11-.09-.21-.13-.32,0,0-.04,0-.08,0-3.68-.47-6.99-.48-10.01-.48-.27,0-.5,0-.55,0-.4,0-1.85,0-3.98.07-1.17.04-2.61.09-4.27.18.18.95.45,1.87.81,2.73.35.83.79,1.69,1,2.54-3.13,1.46-6.76,2.82-10.18,3.32-2.07.3-2.17.39-2.8-1.75-.79-2.69-1.34-5.58-2.71-8.02-1.06-1.89-2.77-4.6-2.49-6.88-.06-1.19.01-2.37.18-3.54.22-1.57.62-3.12,1.08-4.64.21-.7,1.03-4.59,1.95-4.63,3.66-.18,8.75-.69,11.48-1.18,1.21-.21,2.48-.49,2.48-.49s.31-.07.64-.14Z"/>
      <path class="st10" d="M123.35,118.95c-.56,3.32-.5,6.9.55,9.94,1.67-.24,3.37-.86,4.99-1.47-1.02-2.45-1.46-5.25-1.23-8.04-1.56,0-2.76-.42-4.31-.43Z"/>
      <path class="st19" d="M116.98,112.41c-.41,3.15-.12,6.75,2.33,9.45,0,0,4.65-.5,10.76-.83,9.3-.5,21.98-.59,26.77,2.1l-1.06-14.71-.99-13.71s-9.94,6.71-25.48,9.52c-3.2.58-6.64.99-10.27,1.15,0,0-1.57,3.17-2.07,7.03Z"/>
      <path class="st5" d="M116.98,112.41c13.03,1.1,26.26-.27,38.8-3.99l-.99-13.71s-9.94,6.71-25.48,9.52c-3.2.58-6.64.99-10.27,1.15,0,0-1.57,3.17-2.07,7.03Z"/>
      <path class="st4" d="M163.13,122.42c-.25,1.45-.59,2.94-1.7,4.08-1.11,1.14-3.19,1.83-5.14,1.28-2.41-.68-3.53-2.78-4.3-4.6-3.02-7.13-5.03-14.46-4.32-21.63.31-3.11.58-10.45,4.59-11.97,5.39-2.04,8.24,6.32,9.03,9,2.35,8.03,3.18,16.01,1.84,23.84Z"/>
      <path class="st10" d="M148.86,102.22c-.05.84-.08,1.69-.06,2.54,0,0,0,0,0,0,.06,3.62.72,7.23,1.77,10.8.66,2.27,1.48,4.52,2.4,6.73.69,1.66,1.68,3.57,3.73,4.08,1.66.41,3.4-.36,4.31-1.49.91-1.13,1.16-2.55,1.35-3.93.96-7.44.09-14.89-2.07-22.3-.72-2.47-3.31-10.17-7.81-7.94-3.35,1.66-3.42,8.57-3.61,11.51Z"/>
      <path class="st4" d="M119.31,121.86s4.65-.5,10.76-.83c-1.78-5.39-2.05-11.28-.75-16.8-3.2.58-6.64.99-10.27,1.15,0,0-5.18,10.48.26,16.48Z"/>
      <path class="st4" d="M121.23,119.69c-.56,3.32-.5,6.9.55,9.94,1.67-.24,3.37-.86,4.99-1.47-1.02-2.45-1.46-5.25-1.23-8.04-1.56,0-2.76-.42-4.31-.43Z"/>
      <path class="st6" d="M118.66,109.77c.1-1.15.23-2.24.65-3.31,3.04.02,5.96-.2,8.98-.53-.38,1.21-.51,2.49-.4,3.75-3.14.14-6.1-.05-9.24.09Z"/>
      <path class="st6" d="M118.48,111.92c0-.41-.13-.87-.12-1.28,3.18.04,6.32-.02,9.5.02-.03.42-.07.85-.1,1.27-3.09-.02-6.21-.2-9.29-.01Z"/>
      <path class="st11" d="M148.8,104.75s0,0,0,0c.06,3.62.72,7.23,1.77,10.8,2.44-1.2,4.84-2.21,7.28-3.41-.17-2.4-.71-4.55-.73-7.09-2.73-.34-5.56-.49-8.32-.5,0,.07,0,.13,0,.2Z"/>
      <path class="st19" d="M150.79,114.36c-.6-1.09-.69-2.39-.83-3.61,2.79-.21,4.57-.51,7.29-1.17.09.7.14,1.43.31,2.12-2.14,1.1-4.47,1.98-6.78,2.65Z"/>
      <path class="st0" d="M123.06,118.98c.62-.06,1.29,0,1.85.27.38.19.22.69-.18.69-.67,0-1.35-.05-2.03-.06-.27,0-.78.05-.77-.34.01-.43.83-.53,1.13-.56Z"/>
      <path class="st0" d="M122,117.01c.89-.11,2.04-.12,2.87.25.34.15.34.77-.1.79-.45.02-.89-.07-1.33-.1-.48-.03-.95-.02-1.43-.01-.53,0-.52-.86-.01-.92Z"/>
    </g>
    <path class="st4" d="M67.57,168.27s-.48-3.04,3.07-3.52c1.52-.21,1.83-.57,1.69-.92-.31-.75.07-1.64.83-1.92,1.38-.52,3-.66,3.21,1.41.37,3.69-1.27,5.8-1.27,5.8,0,0-.24,3.18-.59,3.46s-4-1.83-6.94-4.32Z"/>
    <path class="st13" d="M80.28,125.7s6.38,12.26,20.55,16.34c0,0,12.89-.89,23.87-13.4,0,0,9.96-.13,13.66-4.6,0,0,3.19-4.72-1.79-5.49,0,0,3.06-2.04,1.15-4.85-.61-.89-1.65-1.39-2.77-1.64-2.83-.64-5.79.25-7.99,2.15s-4.77,4.51-5.3,6.75c0,0-2.2,2.64-6.67,3.69s-12.38,4.37-14.17,7.3c0,0-3.06-6.64-11.49-13.53-8.43-6.89-9.06,7.28-9.06,7.28Z"/>
    <path class="st16" d="M136.64,119.05c-1.76.11-3.64.29-5.2,1.21.68-.62,1.54-1.03,2.4-1.38.87-.34,1.75-.61,2.68-.82l.12.99h0Z"/>
    <ellipse class="st3" cx="102.17" cy="135.2" rx="1.94" ry="1.49" transform="translate(-53.91 69.2) rotate(-30)"/>
    <path class="st15" d="M84.09,133.6s-3.54-4.43-3.41-6.39,2.87.97,2.87.97c0,0,5.6,5.43,7.04,6.34s7.98,4.91,10.02,5.19,12.04-4.12,12.66-4.37,9.83-7.02,10.09-7.4,3.02-1.32,4.23-1.42,7.47-1.56,8.74-2.22,2.45-2.02,2.45-2.02c0,0-.04,1.74-3.09,3.11-3.04,1.36-2.11,1.49-5.34,2.04s-4.77.47-5.66,1-2.09,1.72-2.09,1.72c0,0-4.06,3.99-6.09,5.19s-4.28,2.71-4.91,2.86-6.66,3.28-10.77,3.43c0,0-4.51-1.47-8.19-3.72s-4.49-3.11-4.49-3.11l-2.51-2.32-.57-.46-1,1.58Z"/>
    <ellipse class="st4" cx="114.86" cy="131.13" rx="1.51" ry="1.55"/>
    <ellipse class="st19" cx="125.12" cy="121.29" rx="1.51" ry="1.55"/>
    <path class="st20" d="M85.53,130.07l-.29,1.89s4.23,3.98,6.07,4.91l.6-1.8-6.38-5Z"/>
    <path class="st4" d="M85.53,130.07s-.13-2.93,3.45-2.93c1.54,0,1.89-.32,1.8-.68-.21-.79.29-1.61,1.08-1.79,1.44-.33,3.07-.25,2.99,1.83-.13,3.7-2.04,5.58-2.04,5.58,0,0-.51,2.77-.89,3s-4.09-1.82-6.38-5Z"/>
    <path class="st16" d="M85.97,116.61c3.4,1.31,6.21,3.81,8.72,6.4,2.48,2.59,4.75,5.6,6.58,8.69,0,0-.84-.03-.84-.03,1.33-1.61,2.92-2.68,4.6-3.68,2.52-1.46,5.23-2.49,8-3.32,3.6-.81,7.22-2.31,9.11-5.64,2.42-4.17,6.6-8.13,11.79-7.62,2.28.14,5.28,2.06,4.86,4.73-.15,1.19-.91,2.3-1.97,2.85,0,0-.07-.91-.07-.91,1.23.52,2.85,1.31,3.11,2.88-.01.97-.03,1.62-.42,2.56-1.16,1.95-3.34,2.79-5.28,3.71-2.36,1.16-5.09,1.47-7.66,1.73-1.52.16-2.55,1.24-3.57,2.3-3,2.92-6.42,5.41-10.13,7.36-3.75,1.96-7.81,3.31-12,3.94-4.07-1.07-7.66-3.18-10.91-5.76-3.18-2.55-5.94-5.58-8.26-8.91,4.94,6.23,11.63,11.4,19.3,13.67,7.19-1.08,15.7-5.34,21.3-11.02.76-.73,1.49-1.63,2.5-2.07.88-.47,2.2-.57,3.18-.68,2.08-.19,3.97-.6,5.85-1.48,1.71-.81,3.75-1.6,4.78-3.23.24-.59.51-1.97.12-2.51-.46-.68-1.4-1.2-2.27-1.55,0,0-.98-.39-.98-.39l.91-.52c1.09-.56,1.63-1.83,1.46-3-.19-.4-.85-1.5-1.55-1.87-2.26-1.46-5.37-.93-7.63.32-1.58.9-2.92,2.21-4.07,3.67-1.21,1.49-1.99,3.32-3.42,4.64-1.41,1.4-3.24,2.37-5.07,2.96-5.28,1.5-11.09,3.21-14.83,7.4,0,0-.46.56-.46.56l-.37-.59c-3.76-5.96-7.95-12.38-14.44-15.61h0Z"/>
    <path class="st21" d="M53.11,138.01s1.28,8.73,3.55,12.07c0,0-2.78,2.2-3.74,3.73,0,0-1.9-12.8-1.02-16.2l1.22.4Z"/>
  </g>
  <circle class="st7" cx="103.38" cy="100.51" r="76.3"/>
</svg>