<svg width="12" height="12" viewBox="0 0 12 12" fill="none" xmlns="http://www.w3.org/2000/svg">
<g clip-path="url(#clip0_1165_7244)">
<path d="M6.5601 8.51148L4.4606 7.36648C4.1865 7.65951 3.8306 7.86332 3.43914 7.95142C3.04768 8.03953 2.63878 8.00784 2.26556 7.8605C1.89235 7.71315 1.57208 7.45696 1.34639 7.1252C1.12069 6.79345 1 6.40148 1 6.00023C1 5.59898 1.12069 5.20701 1.34639 4.87526C1.57208 4.5435 1.89235 4.28731 2.26556 4.13996C2.63878 3.99261 3.04768 3.96093 3.43914 4.04904C3.8306 4.13714 4.1865 4.34095 4.4606 4.63398L6.5606 3.48898C6.44138 3.01702 6.49838 2.51777 6.72092 2.08483C6.94346 1.65189 7.31626 1.31497 7.76944 1.13723C8.22262 0.959491 8.72506 0.953132 9.18259 1.11935C9.64013 1.28556 10.0213 1.61294 10.2548 2.04011C10.4882 2.46728 10.5578 2.96492 10.4506 3.43975C10.3433 3.91458 10.0666 4.334 9.67222 4.61938C9.27786 4.90477 8.79296 5.03653 8.3084 4.98998C7.82385 4.94342 7.3729 4.72174 7.0401 4.36648L4.9401 5.51148C5.0207 5.83216 5.0207 6.1678 4.9401 6.48848L7.0396 7.63348C7.3724 7.27822 7.82335 7.05654 8.3079 7.00998C8.79246 6.96342 9.27736 7.09519 9.67172 7.38057C10.0661 7.66596 10.3428 8.08538 10.4501 8.56021C10.5573 9.03504 10.4877 9.53268 10.2543 9.95985C10.0208 10.387 9.63963 10.7144 9.18209 10.8806C8.72456 11.0468 8.22212 11.0405 7.76894 10.8627C7.31576 10.685 6.94296 10.3481 6.72042 9.91513C6.49788 9.48219 6.44088 8.98294 6.5601 8.51098V8.51148ZM3.0001 6.99998C3.26532 6.99998 3.51967 6.89462 3.70721 6.70709C3.89475 6.51955 4.0001 6.2652 4.0001 5.99998C4.0001 5.73476 3.89475 5.48041 3.70721 5.29287C3.51967 5.10534 3.26532 4.99998 3.0001 4.99998C2.73489 4.99998 2.48053 5.10534 2.293 5.29287C2.10546 5.48041 2.0001 5.73476 2.0001 5.99998C2.0001 6.2652 2.10546 6.51955 2.293 6.70709C2.48053 6.89462 2.73489 6.99998 3.0001 6.99998ZM8.5001 3.99998C8.76532 3.99998 9.01967 3.89462 9.20721 3.70709C9.39475 3.51955 9.5001 3.2652 9.5001 2.99998C9.5001 2.73476 9.39475 2.48041 9.20721 2.29287C9.01967 2.10534 8.76532 1.99998 8.5001 1.99998C8.23489 1.99998 7.98053 2.10534 7.793 2.29287C7.60546 2.48041 7.5001 2.73476 7.5001 2.99998C7.5001 3.2652 7.60546 3.51955 7.793 3.70709C7.98053 3.89462 8.23489 3.99998 8.5001 3.99998ZM8.5001 9.99998C8.76532 9.99998 9.01967 9.89462 9.20721 9.70709C9.39475 9.51955 9.5001 9.2652 9.5001 8.99998C9.5001 8.73476 9.39475 8.48041 9.20721 8.29287C9.01967 8.10534 8.76532 7.99998 8.5001 7.99998C8.23489 7.99998 7.98053 8.10534 7.793 8.29287C7.60546 8.48041 7.5001 8.73476 7.5001 8.99998C7.5001 9.2652 7.60546 9.51955 7.793 9.70709C7.98053 9.89462 8.23489 9.99998 8.5001 9.99998Z" fill="#595959"/>
</g>
<defs>
<clipPath id="clip0_1165_7244">
<rect width="12" height="12" fill="white"/>
</clipPath>
</defs>
</svg>
