<?xml version="1.0" encoding="UTF-8"?>
<svg id="Layer_1" xmlns="http://www.w3.org/2000/svg" version="1.1" viewBox="0 0 500 500">
  <!-- Generator: Adobe Illustrator 30.0.0, SVG Export Plug-In . SVG Version: 2.1.1 Build 123)  -->
  <defs>
    <style>
      .st0 {
        fill: #582ff5;
      }
    </style>
  </defs>
  <path class="st0" d="M336.33,202.21l-96.84-55.24c-.86-.52-2.01-.52-2.88.06l-93.79,55.24c-2.53,1.5-1.44,5.35,1.5,5.35h190.57c2.93,0,3.97-3.91,1.44-5.41ZM239.61,193.64c-6.62,0-12.03-5.35-12.03-11.97s5.41-12.03,12.03-12.03,11.97,5.41,11.97,12.03-5.35,11.97-11.97,11.97Z"/>
  <rect class="st0" x="173.72" y="213.95" width="25.46" height="65.62"/>
  <rect class="st0" x="226.11" y="213.95" width="25.46" height="65.62"/>
  <rect class="st0" x="278.49" y="213.95" width="25.46" height="65.62"/>
  <rect class="st0" x="162.7" y="285.9" width="153.76" height="12.98"/>
  <rect class="st0" x="149.36" y="305.21" width="180.45" height="12.73"/>
</svg>