<?xml version="1.0" encoding="UTF-8"?>
<svg id="Layer_1" xmlns="http://www.w3.org/2000/svg" version="1.1" viewBox="0 0 500 500">
  <!-- Generator: Adobe Illustrator 30.0.0, SVG Export Plug-In . SVG Version: 2.1.1 Build 123)  -->
  <defs>
    <style>
      .st0, .st1 {
        fill: #582ff5;
      }

      .st2 {
        fill: none;
        stroke: #582ff5;
        stroke-width: 2px;
      }

      .st2, .st1 {
        stroke-miterlimit: 10;
      }

      .st1 {
        stroke: #fff;
      }
    </style>
  </defs>
  <path class="st0" d="M317.97,170.58h-128.43c-17.73,0-32.24,14.51-32.24,32.24v90.39c0,8.43,6.89,15.32,15.32,15.32h154.78c8.43,0,15.32-6.89,15.32-15.32v-97.88c0-13.61-11.14-24.75-24.75-24.75ZM268.87,238.59c0,10.54-8.63,19.17-19.17,19.17h0c-10.97,0-19.85-8.89-19.85-19.85v-8.38c0-4.52,3.66-8.18,8.18-8.18h23.43c4.1,0,7.42,3.32,7.42,7.42v9.82Z"/>
  <g>
    <path class="st1" d="M343.95,228.29c-.41.27-.82.48-1.24.76-20.13,11.95-34.97,9.34-73.85,8.79"/>
    <path class="st1" d="M229.84,238.18c-1.65,0-3.37.07-5.08.14-50.08,1.99-63.89-4.67-67.46-9.34-1.85-2.4-1.1-4.26-1.1-4.26"/>
    <path class="st1" d="M268.87,227.19v12.98c0,9.69-7.83,17.59-17.52,17.59h-3.23c-10.1,0-18.27-8.18-18.27-18.27v-11.54c0-3.64,2.95-6.6,6.59-6.6h26.59c3.23,0,5.84,2.61,5.84,5.84Z"/>
  </g>
  <polyline class="st2" points="220.74 176.91 221.47 153.05 229.62 142.85 271.2 142.85 279.21 153.49 279.21 179.1"/>
</svg>