<?xml version="1.0" encoding="UTF-8"?>
<svg id="Layer_1" xmlns="http://www.w3.org/2000/svg" version="1.1" viewBox="0 0 500 500">
  <!-- Generator: Adobe Illustrator 30.0.0, SVG Export Plug-In . SVG Version: 2.1.1 Build 123)  -->
  <defs>
    <style>
      .st0, .st1 {
        fill: #582ff5;
      }

      .st2 {
        fill: none;
        stroke: #582ff5;
      }

      .st2, .st1 {
        stroke-miterlimit: 10;
        stroke-width: 8px;
      }

      .st1 {
        stroke: #fff;
      }
    </style>
  </defs>
  <path class="st0" d="M345.65,150.11h-180.74c-24.95,0-45.37,20.41-45.37,45.37v127.21c0,11.86,9.7,21.56,21.56,21.56h217.82c11.86,0,21.56-9.7,21.56-21.56v-137.74c0-19.16-15.68-34.83-34.83-34.83ZM276.55,245.83c0,14.84-12.14,26.97-26.97,26.97h0c-15.43,0-27.94-12.51-27.94-27.94v-11.79c0-6.35,5.15-11.51,11.51-11.51h32.97c5.77,0,10.44,4.68,10.44,10.44v13.82Z"/>
  <g>
    <path class="st1" d="M382.22,231.32c-.58.39-1.16.68-1.74,1.06-28.33,16.82-49.21,13.15-103.93,12.38"/>
    <path class="st1" d="M221.63,245.25c-2.32,0-4.74.1-7.15.19-70.48,2.8-89.91-6.57-94.94-13.15-2.61-3.38-1.55-5.99-1.55-5.99"/>
    <path class="st1" d="M276.55,229.78v18.27c0,13.63-11.02,24.75-24.65,24.75h-4.54c-14.21,0-25.72-11.51-25.72-25.72v-16.24c0-5.12,4.16-9.28,9.28-9.28h37.42c4.54,0,8.22,3.67,8.22,8.22Z"/>
  </g>
  <polyline class="st2" points="208.82 159.02 209.84 125.44 221.32 111.09 279.84 111.09 291.1 126.05 291.1 162.1"/>
</svg>