<?xml version="1.0" encoding="UTF-8"?>
<svg id="Layer_1" xmlns="http://www.w3.org/2000/svg" version="1.1" viewBox="0 0 500 500">
  <!-- Generator: Adobe Illustrator 30.0.0, SVG Export Plug-In . SVG Version: 2.1.1 Build 123)  -->
  <defs>
    <style>
      .st0, .st1 {
        fill: #582ff5;
      }

      .st1 {
        stroke: #fff;
        stroke-miterlimit: 10;
        stroke-width: 8px;
      }
    </style>
  </defs>
  <g>
    <path class="st0" d="M250.25,230.14h.34c0,.17-.08.34-.08.42-.17-.17-.17-.25-.25-.42Z"/>
    <path class="st0" d="M374.88,231.66c-1.27,3.14-2.89,6.11-4.67,9,1.7-2.97,3.23-6.03,4.67-9Z"/>
    <path class="st0" d="M312.91,136.58c-29.12,0-53.91,18.51-63.41,44.48-10.19-24.62-34.3-41.94-62.4-41.94-37.35,0-67.57,30.48-67.57,68,0,8.74,1.61,17.06,4.67,24.7v.08c.59,1.61,1.27,3.14,1.95,4.67,0,.17.08.42.25.59,7.89,17.23,34.97,60.02,124.03,126.23,0,0,85.15-60.7,119.78-122.75,1.7-2.97,3.23-6.03,4.67-9,3.65-8.32,5.6-17.49,5.6-27.08,0-37.52-30.31-68-67.57-68ZM250.51,230.56c-.17-.17-.17-.25-.25-.42h.34c0,.17-.08.34-.08.42Z"/>
    <path class="st0" d="M250.59,230.14c0,.17-.08.34-.08.42-.17-.17-.17-.25-.25-.42h.34Z"/>
    <path class="st0" d="M124.19,231.92c.59,1.61,1.27,3.14,1.95,4.67-.93-1.87-1.53-3.48-1.95-4.67Z"/>
    <path class="st0" d="M250.59,230.14c0,.17-.08.34-.08.42-.17-.17-.17-.25-.25-.42h.34Z"/>
  </g>
  <path class="st1" d="M133.17,252.86h58.74l22.36-51.49c.51-1.18,2.21-1.09,2.59.14l27.55,88.56c.6,1.92,3.25,2.11,4.11.29l28.1-59.26c1.17-2.47,4.61-2.67,6.06-.36l12.54,19.94h72.03"/>
</svg>