<?xml version="1.0" encoding="UTF-8"?>
<svg id="Layer_1" xmlns="http://www.w3.org/2000/svg" version="1.1" viewBox="0 0 500 500">
  <!-- Generator: Adobe Illustrator 30.0.0, SVG Export Plug-In . SVG Version: 2.1.1 Build 123)  -->
  <defs>
    <style>
      .st0, .st1 {
        fill: #582ff5;
      }

      .st1 {
        stroke: #fff;
        stroke-miterlimit: 10;
      }
    </style>
  </defs>
  <g>
    <path class="st0" d="M250.19,224.68h.25c0,.13-.06.25-.06.32-.13-.13-.13-.19-.19-.32Z"/>
    <path class="st0" d="M342.79,225.82c-.95,2.33-2.15,4.54-3.47,6.69,1.26-2.21,2.4-4.48,3.47-6.69Z"/>
    <path class="st0" d="M296.74,155.17c-21.64,0-40.05,13.75-47.12,33.05-7.57-18.29-25.48-31.16-46.36-31.16-27.75,0-50.21,22.64-50.21,50.52,0,6.5,1.2,12.68,3.47,18.36v.06c.44,1.2.95,2.33,1.45,3.47,0,.13.06.32.19.44,5.87,12.8,25.99,44.6,92.16,93.8,0,0,63.27-45.1,89-91.21,1.26-2.21,2.4-4.48,3.47-6.69,2.71-6.18,4.16-12.99,4.16-20.12,0-27.88-22.52-50.52-50.21-50.52ZM250.38,225c-.13-.13-.13-.19-.19-.32h.25c0,.13-.06.25-.06.32Z"/>
    <path class="st0" d="M250.44,224.68c0,.13-.06.25-.06.32-.13-.13-.13-.19-.19-.32h.25Z"/>
    <path class="st0" d="M156.52,226.01c.44,1.2.95,2.33,1.45,3.47-.69-1.39-1.13-2.59-1.45-3.47Z"/>
    <path class="st0" d="M250.44,224.68c0,.13-.06.25-.06.32-.13-.13-.13-.19-.19-.32h.25Z"/>
  </g>
  <path class="st1" d="M163.19,241.57h43.65l16.61-38.26c.38-.88,1.64-.81,1.93.1l20.47,65.8c.44,1.43,2.41,1.57,3.06.22l20.88-44.03c.87-1.84,3.42-1.99,4.5-.27l9.31,14.82h53.52"/>
</svg>