<?xml version="1.0" encoding="UTF-8"?>
<svg id="Layer_1" xmlns="http://www.w3.org/2000/svg" version="1.1" viewBox="0 0 500 500">
  <!-- Generator: Adobe Illustrator 30.0.0, SVG Export Plug-In . SVG Version: 2.1.1 Build 123)  -->
  <defs>
    <style>
      .st0 {
        fill: #582ff5;
      }
    </style>
  </defs>
  <circle class="st0" cx="243.63" cy="204.19" r="30.39" transform="translate(-1.47 1.77) rotate(-.42)"/>
  <circle class="st0" cx="179.21" cy="215.89" r="18.7" transform="translate(-1.56 1.3) rotate(-.42)"/>
  <circle class="st0" cx="305.96" cy="212.61" r="18.7" transform="translate(-1.53 2.22) rotate(-.42)"/>
  <path class="st0" d="M147.57,281.7h63.09s4.84-30.59-9.68-39.41c-14.52-8.81-37.59-2.16-37.59-2.16,0,0-19.96,5.27-15.81,41.57Z"/>
  <path class="st0" d="M274.32,279.74h63.09s4.84-30.59-9.68-39.41c-14.52-8.81-37.59-2.16-37.59-2.16,0,0-19.96,5.27-15.81,41.57Z"/>
  <path class="st0" d="M195.73,304.29h95.49s7.32-46.3-14.65-59.65c-21.97-13.34-56.9-3.27-56.9-3.27,0,0-30.22,7.98-23.94,62.92Z"/>
</svg>