<?xml version="1.0" encoding="UTF-8"?>
<svg id="Layer_1" xmlns="http://www.w3.org/2000/svg" version="1.1" viewBox="0 0 500 500">
  <!-- Generator: Adobe Illustrator 30.0.0, SVG Export Plug-In . SVG Version: 2.1.1 Build 123)  -->
  <defs>
    <style>
      .st0 {
        fill: #582ff5;
      }
    </style>
  </defs>
  <circle class="st0" cx="250.78" cy="179.87" r="21.76"/>
  <path class="st0" d="M211.68,254.42s-6.86-43.88,39.5-43.88,38.56,43.88,38.56,43.88h-78.06Z"/>
  <circle class="st0" cx="174.9" cy="206.31" r="17.23"/>
  <circle class="st0" cx="326.65" cy="206.31" r="17.23"/>
  <path class="st0" d="M189.83,304.77s-37.47,9.43-37.96-19.34c-.28-16.81-.23-28.17-.15-34.72.12-8.87,6.47-16.6,15.23-17.98,1.98-.31,4.19-.42,6.67-.25,17.41,1.21,18.49,16.68,18.49,16.68,0,0,.36,11.92,22.36,11.12,17.51-.64,11.48,11.24,3.02,11-12.81-.36-18.01.97-23.81-5.32-4.21-4.56-4.01.49-3.58,3.6.22,1.6.34,3.16.32,4.78-.1,7.44-.41,27.86-.6,30.42Z"/>
  <path class="st0" d="M310.17,304.77s37.47,9.43,37.96-19.34c.28-16.81.23-28.17.15-34.72-.12-8.87-6.47-16.6-15.23-17.98-1.98-.31-4.19-.42-6.67-.25-17.41,1.21-18.49,16.68-18.49,16.68,0,0-.36,11.92-22.36,11.12-17.51-.64-11.48,11.24-3.02,11,12.81-.36,18.01.97,23.81-5.32,4.21-4.56,4.01.49,3.58,3.6-.22,1.6-.34,3.16-.32,4.78.1,7.44.41,27.86.6,30.42Z"/>
  <rect class="st0" x="197.75" y="277.09" width="105.89" height="39.53"/>
  <rect class="st0" x="234.01" y="261.13" width="33" height="12.69"/>
</svg>