<?xml version="1.0" encoding="UTF-8"?>
<svg id="Layer_1" xmlns="http://www.w3.org/2000/svg" version="1.1" viewBox="0 0 500 500">
  <!-- Generator: Adobe Illustrator 30.0.0, SVG Export Plug-In . SVG Version: 2.1.1 Build 123)  -->
  <defs>
    <style>
      .st0 {
        fill: #bbbaef;
      }

      .st1 {
        fill: none;
        stroke: #fff;
        stroke-miterlimit: 10;
        stroke-width: 8px;
      }

      .st2 {
        fill: #fff;
      }

      .st3 {
        fill: #582ff5;
      }
    </style>
  </defs>
  <g>
    <rect class="st0" x="222.98" y="177.34" width="159.51" height="135.18" rx="4.28" ry="4.28" transform="translate(605.48 489.87) rotate(180)"/>
    <path class="st0" d="M343.99,301.02v43.14s-43.55-45.54-43.55-45.54c0,0,44.92,3.83,43.55,2.4Z"/>
  </g>
  <g>
    <path class="st1" d="M264.08,282.05s50.42-16.56,58.27-62.63"/>
    <polyline class="st1" points="269.69 212.57 303.02 212.57 343.64 212.57"/>
    <path class="st1" d="M284.25,224.9s22.41,45.94,53.78,57.15"/>
    <line class="st1" x1="302.74" y1="191.57" x2="303.02" y2="212.57"/>
  </g>
  <g>
    <rect class="st3" x="117.5" y="132.28" width="164.86" height="135.18" rx="4.28" ry="4.28"/>
    <path class="st3" d="M157.3,255.96v43.14l45-45.54s-46.43,3.83-45,2.4Z"/>
  </g>
  <path class="st2" d="M194.93,153.6h9.96l31.82,83.21h-16.88l-19.91-56.83-19.91,56.83h-16.88l31.82-83.21ZM178.39,208.37h43.78v15.11h-43.78v-15.11Z"/>
</svg>