<?xml version="1.0" encoding="UTF-8"?>
<svg id="Layer_1" xmlns="http://www.w3.org/2000/svg" version="1.1" viewBox="0 0 500 500">
  <!-- Generator: Adobe Illustrator 30.0.0, SVG Export Plug-In . SVG Version: 2.1.1 Build 123)  -->
  <defs>
    <style>
      .st0, .st1 {
        fill: #582ff5;
      }

      .st1 {
        stroke-width: .75px;
      }

      .st1, .st2 {
        stroke: #582ff5;
        stroke-miterlimit: 10;
      }

      .st2 {
        fill: none;
        stroke-width: 12px;
      }
    </style>
  </defs>
  <rect class="st2" x="142.46" y="146.72" width="205.22" height="146.57" rx="1.85" ry="1.85"/>
  <path class="st1" d="M137.5,284.69l-14.66,14.66c-1,1-.29,2.7,1.12,2.7h238.79c1.57,0,2.34-1.91,1.22-3l-14.53-14.11-211.94-.25Z"/>
  <path class="st0" d="M114.71,312.84h99.2c2.68,0,4.85,2.17,4.85,4.85v3.39c0,2.68,2.17,4.85,4.85,4.85l43.77.42c2.68,0,3.69-2.19,3.69-4.87l.25-5.87c0-2.68,5.33-2.98,8.01-2.98l86.46.5c2.33,0,8.55-.93,8.94,1.36,1.05,6.13,1.42,17.99-9.16,24.86-.35.23-.71.45-1.08.66l-240.26,1.17s-10.55,1.06-14.33-22.61c-.48-2.98,1.78-5.75,4.8-5.75Z"/>
</svg>