<?xml version="1.0" encoding="UTF-8"?>
<svg id="Layer_1" xmlns="http://www.w3.org/2000/svg" version="1.1" viewBox="0 0 500 500">
  <!-- Generator: Adobe Illustrator 30.0.0, SVG Export Plug-In . SVG Version: 2.1.1 Build 123)  -->
  <defs>
    <style>
      .st0, .st1 {
        fill: #582ff5;
      }

      .st2 {
        fill: none;
        stroke-width: 2px;
      }

      .st2, .st1 {
        stroke: #582ff5;
        stroke-miterlimit: 10;
      }

      .st1 {
        stroke-width: .75px;
      }
    </style>
  </defs>
  <rect class="st2" x="157.26" y="152.52" width="172.46" height="123.17" rx="1.85" ry="1.85"/>
  <path class="st1" d="M153.09,268.47l-12.32,12.32c-.84.84-.24,2.27.94,2.27h200.68c1.32,0,1.97-1.6,1.02-2.52l-12.21-11.86-178.11-.21Z"/>
  <path class="st0" d="M133.94,292.12h83.37c2.25,0,4.08,1.83,4.08,4.08v2.85c0,2.25,1.83,4.08,4.08,4.08l36.78.35c2.25,0,3.1-1.84,3.1-4.09l.21-4.94c0-2.25,4.48-2.5,6.73-2.5l72.66.42c1.95,0,7.18-.78,7.51,1.15.88,5.15,1.19,15.12-7.7,20.9-.29.19-.59.38-.91.56l-201.91.99s-8.87.89-12.05-19c-.4-2.51,1.49-4.83,4.03-4.83Z"/>
</svg>