<?xml version="1.0" encoding="UTF-8"?>
<svg id="Layer_1" xmlns="http://www.w3.org/2000/svg" version="1.1" viewBox="0 0 500 500">
  <!-- Generator: Adobe Illustrator 30.0.0, SVG Export Plug-In . SVG Version: 2.1.1 Build 123)  -->
  <defs>
    <style>
      .st0, .st1 {
        fill: #582ff5;
      }

      .st1 {
        stroke: #fff;
        stroke-miterlimit: 10;
      }
    </style>
  </defs>
  <g>
    <g>
      <circle class="st0" cx="214.87" cy="148.23" r="24.32"/>
      <circle class="st0" cx="181.52" cy="179.2" r="24.32"/>
      <circle class="st0" cx="164.85" cy="223.57" r="24.32"/>
      <circle class="st0" cx="181.52" cy="266.45" r="24.32"/>
      <circle class="st0" cx="214.87" cy="295.04" r="24.32"/>
      <polygon class="st0" points="239.19 148.23 239.19 188.04 239.19 295.04 179.41 272.31 168.39 217.52 183.58 179.2 214.87 148.23 239.19 148.23"/>
    </g>
    <path class="st1" d="M197.87,203.52"/>
    <path class="st1" d="M239.19,182.38h-41.92s-12.05-22.33,8.57-20.84c0,0,10.5,8.34,10.64,19.06"/>
    <path class="st1" d="M239.19,222.58l-57.67-.94s4.14-14.24-14.32-16.62"/>
    <path class="st1" d="M181.52,221.63s-2.65,10.77-16.68,9.88"/>
    <path class="st1" d="M239.19,254.74l-27.92,1.49s-25.37-3.17-22.1,8.93,31.04,7.04,37.59-1.99"/>
  </g>
  <g>
    <g>
      <circle class="st0" cx="276.18" cy="149.17" r="24.32"/>
      <circle class="st0" cx="309.53" cy="180.14" r="24.32"/>
      <circle class="st0" cx="326.21" cy="224.51" r="24.32"/>
      <circle class="st0" cx="309.53" cy="267.39" r="24.32"/>
      <circle class="st0" cx="276.18" cy="295.98" r="24.32"/>
      <polygon class="st0" points="251.86 149.17 251.86 188.98 251.86 295.98 311.65 273.25 322.67 218.46 307.48 180.14 276.18 149.17 251.86 149.17"/>
    </g>
    <path class="st1" d="M293.19,204.46"/>
    <path class="st1" d="M251.86,183.32h41.92s12.05-22.33-8.57-20.84c0,0-10.5,8.34-10.64,19.06"/>
    <path class="st1" d="M251.86,223.52l57.67-.94s-4.14-14.24,14.32-16.62"/>
    <path class="st1" d="M309.53,222.58s2.65,10.77,16.68,9.88"/>
    <path class="st1" d="M251.86,255.68l27.92,1.49s25.37-3.17,22.1,8.93c-3.27,12.1-31.04,7.04-37.59-1.99"/>
  </g>
</svg>