<?xml version="1.0" encoding="UTF-8"?>
<svg id="Layer_1" xmlns="http://www.w3.org/2000/svg" version="1.1" viewBox="0 0 500 500">
  <!-- Generator: Adobe Illustrator 30.0.0, SVG Export Plug-In . SVG Version: 2.1.1 Build 123)  -->
  <defs>
    <style>
      .st0 {
        fill: #582ff5;
      }
    </style>
  </defs>
  <circle class="st0" cx="284.91" cy="159.64" r="23.46"/>
  <path class="st0" d="M204.95,261.46l17.86,20.68s-16.42,33.59-39.88,32.15c-14.24-.87-27.95-1.39-36.53-1.66-10.29-.33-14.07-14.27-5.03-19.2.12-.07.25-.14.38-.2,12.93-6.7,42.13-2.13,42.13-2.13,0,0,16.28-26.76,21.07-29.63Z"/>
  <path class="st0" d="M307.17,243.02c-11.43-3.55-18.55-3.5-26.13-8.13-4.75-2.9-10.76-2.78-15.35.37-6.44,4.41-14.91,11.48-16.93,19.25-3.35,12.93,24.6,29.68,24.6,29.68,0,0,7.36,12.45,0,33.51-7.36,21.07-15.5,36.39-15.5,36.39,0,0-15.8,11.49-20.11-5.27l15.32-47.88s-33.99-34.95-43.09-43.57c-9.1-8.62,8.38-33.51,8.38-33.51l10.08-13.63c3.34-4.52.8-10.99-4.74-11.96s-11.46-1.65-16.6-1.22c-6.65.55-12.49,8.63-16.24,15.35-5.44,9.75-20.53,7.04-21.53-4.09-.02-.24-.04-.48-.05-.73-.96-16.28,33.99-31.6,33.99-31.6l33.75-.54c12.72-.2,24.84,5.4,32.92,15.23l13.21,16.07c2.35,2.85,4.29,6,6.17,9.18,2.12,3.58,6.88,8.57,16.89,8.42,15.56-.24,17.48.48,17.48.48,0,0,17.16,1.32,14.82,8.5-4.23,12.99-31.47,8.34-31.34,9.69Z"/>
</svg>