<?xml version="1.0" encoding="UTF-8"?>
<svg id="Layer_1" xmlns="http://www.w3.org/2000/svg" version="1.1" viewBox="0 0 500 500">
  <!-- Generator: Adobe Illustrator 30.0.0, SVG Export Plug-In . SVG Version: 2.1.1 Build 123)  -->
  <defs>
    <style>
      .st0 {
        fill: #fff;
      }

      .st1 {
        fill: #582ff5;
      }
    </style>
  </defs>
  <path class="st1" d="M322.49,154.33l13.86,75.51h-6.93v33.37h6.93v12.44h-12.73v31.11h12.73v9.9h-151.02s-19.8-6.79-18.67-25.17,11.31-22.27,11.31-22.27v-.07s-22.15-9.33-11.36-41.01c10.79-31.67,19.98-73.46,19.98-73.46,0,0,47.09-9.12,135.89-.35Z"/>
  <path class="st0" d="M333.86,230.09v33.12h-137.48c-7.65,0-14.83-5.3-16.31-13.2-.4-2.15-.41-4.5.23-6.99.03-.12.06-.23.09-.34,1.93-7.22,8.46-11.99,15.59-12.02l137.89-.57Z"/>
  <path class="st0" d="M333.86,275.71v31.2h-137.48c-7.65,0-14.83-4.99-16.31-12.43-.4-2.03-.41-4.24.23-6.58.03-.11.06-.22.09-.32,1.93-6.8,8.46-11.3,15.59-11.32l137.89-.54Z"/>
</svg>