<svg width="20" height="20" viewBox="1.66 0.82 17.52 17.52" fill="none" xmlns="http://www.w3.org/2000/svg">
<path d="M15.8327 10.8333C15.6117 10.8333 15.3997 10.9211 15.2434 11.0774C15.0871 11.2337 14.9993 11.4456 14.9993 11.6666V11.9833L13.766 10.75C13.3305 10.3179 12.742 10.0755 12.1285 10.0755C11.5151 10.0755 10.9265 10.3179 10.491 10.75L9.90768 11.3333L7.84102 9.26664C7.39945 8.84631 6.81315 8.61188 6.20352 8.61188C5.59388 8.61188 5.00758 8.84631 4.56602 9.26664L3.33268 10.5V5.83331C3.33268 5.61229 3.42048 5.40033 3.57676 5.24405C3.73304 5.08777 3.945 4.99997 4.16602 4.99997H9.99935C10.2204 4.99997 10.4323 4.91218 10.5886 4.7559C10.7449 4.59962 10.8327 4.38766 10.8327 4.16664C10.8327 3.94563 10.7449 3.73367 10.5886 3.57739C10.4323 3.42111 10.2204 3.33331 9.99935 3.33331H4.16602C3.50297 3.33331 2.86709 3.5967 2.39825 4.06554C1.92941 4.53438 1.66602 5.17027 1.66602 5.83331V15.8333C1.66602 16.4964 1.92941 17.1322 2.39825 17.6011C2.86709 18.0699 3.50297 18.3333 4.16602 18.3333H14.166C14.8291 18.3333 15.4649 18.0699 15.9338 17.6011C16.4026 17.1322 16.666 16.4964 16.666 15.8333V11.6666C16.666 11.4456 16.5782 11.2337 16.4219 11.0774C16.2657 10.9211 16.0537 10.8333 15.8327 10.8333ZM4.16602 16.6666C3.945 16.6666 3.73304 16.5788 3.57676 16.4226C3.42048 16.2663 3.33268 16.0543 3.33268 15.8333V12.8583L5.74935 10.4416C5.87178 10.325 6.0344 10.2599 6.20352 10.2599C6.37263 10.2599 6.53526 10.325 6.65768 10.4416L9.29935 13.0833L12.8827 16.6666H4.16602ZM14.9993 15.8333C14.9976 15.9927 14.945 16.1474 14.8493 16.275L11.091 12.5L11.6743 11.9166C11.7341 11.8557 11.8054 11.8072 11.8841 11.7742C11.9628 11.7411 12.0473 11.724 12.1327 11.724C12.218 11.724 12.3026 11.7411 12.3813 11.7742C12.46 11.8072 12.5313 11.8557 12.591 11.9166L14.9993 14.3416V15.8333ZM18.9243 3.57497L16.4243 1.07497C16.3451 0.999107 16.2516 0.939637 16.1493 0.899975C15.9465 0.816626 15.7189 0.816626 15.516 0.899975C15.4137 0.939637 15.3203 0.999107 15.241 1.07497L12.741 3.57497C12.5841 3.73189 12.4959 3.94472 12.4959 4.16664C12.4959 4.38856 12.5841 4.60139 12.741 4.75831C12.8979 4.91523 13.1108 5.00338 13.3327 5.00338C13.5546 5.00338 13.7674 4.91523 13.9243 4.75831L14.9993 3.67497V8.33331C14.9993 8.55432 15.0871 8.76628 15.2434 8.92256C15.3997 9.07884 15.6117 9.16664 15.8327 9.16664C16.0537 9.16664 16.2657 9.07884 16.4219 8.92256C16.5782 8.76628 16.666 8.55432 16.666 8.33331V3.67497L17.741 4.75831C17.8185 4.83642 17.9107 4.89841 18.0122 4.94072C18.1138 4.98302 18.2227 5.00481 18.3327 5.00481C18.4427 5.00481 18.5516 4.98302 18.6532 4.94072C18.7547 4.89841 18.8469 4.83642 18.9243 4.75831C19.0025 4.68084 19.0645 4.58867 19.1068 4.48712C19.1491 4.38557 19.1708 4.27665 19.1708 4.16664C19.1708 4.05663 19.1491 3.94771 19.1068 3.84616C19.0645 3.74461 19.0025 3.65244 18.9243 3.57497Z" fill="#333333"/>
</svg>
