<svg width="24" height="24" viewBox="1.75 4.57 20.5 14.86" fill="none" xmlns="http://www.w3.org/2000/svg">
<path d="M9.04688 9.5V14.5" stroke="#333333" stroke-width="1.5" stroke-miterlimit="10" stroke-linecap="round"/>
<path d="M11.3399 11.605L9.37291 9.63801C9.33018 9.59523 9.27944 9.56129 9.22359 9.53813C9.16774 9.51497 9.10787 9.50305 9.04741 9.50305C8.98694 9.50305 8.92707 9.51497 8.87122 9.53813C8.81537 9.56129 8.76463 9.59523 8.72191 9.63801L6.75391 11.605" stroke="#333333" stroke-width="1.5" stroke-linecap="round" stroke-linejoin="round"/>
<path d="M6.09501 5.32001H12C12.4729 5.31987 12.9412 5.41307 13.378 5.59425C13.8148 5.77543 14.2116 6.04104 14.5455 6.37584C14.8795 6.71065 15.1441 7.10808 15.3242 7.54534C15.5043 7.98261 15.5963 8.45111 15.595 8.92401V15.085C15.595 16.0385 15.2163 16.9529 14.5421 17.6271C13.8679 18.3012 12.9535 18.68 12 18.68H6.09501C5.62291 18.68 5.15543 18.587 4.71926 18.4064C4.2831 18.2257 3.88679 17.9609 3.55296 17.6271C2.87877 16.9529 2.50001 16.0385 2.50001 15.085V8.92301C2.49896 8.45023 2.59117 7.98189 2.77136 7.5448C2.95156 7.10771 3.2162 6.71046 3.55013 6.37579C3.88406 6.04111 4.28072 5.77559 4.71741 5.59442C5.1541 5.41326 5.62223 5.32001 6.09501 5.32001Z" stroke="#333333" stroke-width="1.5" stroke-linecap="round" stroke-linejoin="round"/>
<path d="M21.5 14.573V9.43801C21.4961 9.18985 21.4229 8.94772 21.2886 8.73902C21.1543 8.53031 20.9643 8.36334 20.74 8.25701C20.515 8.14401 20.261 8.10101 20.011 8.13301C19.7638 8.1619 19.5293 8.25805 19.333 8.41101L16.108 10.978C15.956 11.095 15.83 11.242 15.738 11.41C15.65 11.589 15.605 11.785 15.605 11.985C15.6077 12.1856 15.6541 12.3832 15.741 12.564C15.8279 12.7448 15.9531 12.9045 16.108 13.032L19.333 15.62C19.5293 15.7724 19.7633 15.8684 20.01 15.898C20.2603 15.9301 20.5144 15.8869 20.74 15.774C20.9671 15.6643 21.1593 15.4936 21.295 15.281C21.429 15.069 21.5 14.823 21.5 14.573Z" stroke="#333333" stroke-width="1.5" stroke-linecap="round" stroke-linejoin="round"/>
</svg>
