<svg width="395" height="366" viewBox="0 0 395 366" fill="none" xmlns="http://www.w3.org/2000/svg">
<path d="M164.175 164.301C164.175 164.301 176.217 174.26 214.991 170.057C253.766 165.854 271.565 153.292 271.565 153.292C271.565 153.292 292.518 132.918 292.518 104.07C292.518 102.494 296.699 76.8437 302.982 61.6546C305.747 54.9623 306.09 45.3463 305.587 36.644C304.719 21.6604 294.14 9.02949 279.494 5.7861C265.716 2.74828 246.82 3.13656 225.479 16.0873C225.479 16.0873 202.424 33.8802 185.676 28.6497C168.928 23.4192 156.864 41.7375 156.864 41.7375C156.864 41.7375 142.72 78.3969 140.618 81.0008C138.516 83.6046 132.232 97.2406 136.437 102.471C140.641 107.702 164.198 116.61 164.198 116.61C164.198 116.61 149.529 135.979 164.198 164.255L164.175 164.301Z" fill="#D9D1E8"/>
<path d="M294.232 105.714C294.232 105.714 327.226 127.139 347.653 172.706C368.08 218.274 360.219 288.441 360.219 288.441C360.219 288.441 318.84 349.699 226.142 353.377C226.142 353.377 187.916 318.819 196.804 259.136C205.715 199.453 206.241 215.67 206.241 215.67C206.241 215.67 208.914 185.634 199.432 179.01C189.949 172.387 165.912 165.923 165.912 165.923L294.232 105.714Z" fill="#D9D1E8"/>
<path d="M193.628 290.93C193.628 290.93 157.481 286.225 164.952 317.243C172.424 348.261 180.672 349.837 180.672 349.837L208.16 353.377C208.16 353.377 208.548 339.764 201.099 333.026C201.099 333.026 208.16 340.814 214.055 342.39C214.055 342.39 194.816 306.256 193.628 290.953V290.93Z" fill="#6A62AB"/>
<path d="M193.514 289.765C184.169 289.103 173.27 289.994 166.758 297.691C160.292 305.914 163.719 316.603 166.324 325.557C168.541 332.409 173.75 349.7 181.839 350.659C182.935 350.796 185.951 351.161 187.094 351.298C191.549 351.847 203.499 353.308 208.092 353.879L208.686 353.948C208.686 348.146 207.681 342.253 204.87 337.137C203.911 335.515 202.745 334.008 201.374 332.706L200.826 333.277C204.802 337.274 209.097 341.363 214.695 342.87C210.24 334.488 206.036 325.945 202.22 317.266C198.518 308.426 194.474 299.427 193.537 289.788L193.514 289.765ZM193.629 290.93C196.53 309.271 205.784 325.968 213.781 342.527L214.124 342.094C211.611 341.34 209.349 339.832 207.247 338.211C205.144 336.566 203.179 334.716 201.374 332.775L200.826 333.346C206.127 338.462 207.589 346.319 207.635 353.4L208.229 352.897C203.568 352.281 191.778 350.682 187.277 350.088C186.134 349.928 183.164 349.54 182.044 349.38C181.519 349.288 180.742 349.288 180.49 349.083C176.698 346.844 174.504 342.185 172.585 338.279C164.725 318.385 155.631 293.283 186.637 291.867C188.807 291.775 191.115 291.867 193.286 292.072H193.4C193.263 292.072 192.92 291.935 192.806 291.73L193.629 290.953V290.93Z" fill="#231F20"/>
<path d="M203.247 186.32C203.247 186.32 169.865 216.172 168.677 222.454C168.677 222.454 160.817 211.422 145.897 202.217C130.976 193.012 130.976 217.748 130.976 217.748C130.976 217.748 152.18 251.53 167.123 257.012C182.066 262.494 208.754 228.735 208.754 228.735L203.247 186.32Z" fill="#6A62AB"/>
<path d="M203.27 186.205C193.422 194.268 184.214 202.651 175.44 211.81C172.584 215.145 169.225 217.954 167.671 222.248L169.499 221.837C166.46 217.817 162.987 214.322 159.286 211.033C155.561 207.79 151.54 204.912 147.336 202.331C145.257 201.075 142.949 199.727 140.298 199.636C131.844 199.75 130.793 211.513 130.633 217.908C135.432 225.4 140.481 232.709 146.033 239.698C151.791 246.596 157.641 253.723 166.003 257.674C180.649 263.521 201.099 239.538 209.53 229.352L209.805 229.009L209.736 228.575C208.068 216.104 205.144 198.745 203.247 186.182L203.27 186.205ZM203.201 186.434C204.824 200.755 206.012 214.756 207.725 228.872L207.931 228.095C202.265 234.788 196.187 241.274 189.446 246.893C183.209 251.621 174.96 258.702 166.826 255.71C158.989 252.147 152.911 245.134 147.176 238.785C141.555 232.389 135.66 224.167 131.319 217.748C131.57 211.855 132.53 200.641 140.253 200.709C142.56 200.869 144.64 202.148 146.627 203.496C150.672 206.191 154.487 209.206 158.029 212.495C162.188 216.218 165.935 220.398 169.202 224.852L169.659 222.659C171.053 219.096 174.297 216.035 176.788 213.089C185.196 203.93 194.45 195.227 203.179 186.434H203.201Z" fill="#231F20"/>
<path d="M162.804 152.241C162.804 152.241 198.951 155.873 251.595 129.149C251.595 129.149 270.97 126.317 270.285 146.599C270.171 150.094 268.389 153.36 265.441 155.256C253.742 162.885 218.007 181.295 162.804 166.06V152.218V152.241Z" fill="#CFE9ED"/>
<path d="M251.528 159.23C251.528 159.23 236.63 193.286 242.913 202.399C249.197 211.513 265.785 232.298 270.286 243.741C275.222 256.258 278.261 276.7 278.261 280.629C278.261 284.558 277.964 325.397 271.84 345.817C271.84 345.817 235.853 354.45 222.487 352.098C222.487 352.098 194.2 325.762 191.846 283.964C189.493 242.165 202.836 213.865 202.836 213.865C202.836 213.865 209.12 171.199 169.843 166.22C169.843 166.22 232.631 160.327 251.505 159.208L251.528 159.23Z" fill="#CFE9ED"/>
<path d="M135.158 103.75C135.158 103.75 147.496 117.409 160.177 122.48C160.177 122.48 152.591 141.803 160.36 153.018C160.36 153.018 209.051 154.685 244.581 131.593C244.581 131.593 214.809 130.68 203.019 121.772C191.229 112.887 137.191 97.4233 135.158 103.75Z" fill="#24425F"/>
<path d="M227.376 101.489C212.195 101.489 199.889 89.1868 199.889 74.0114C199.889 58.8361 212.195 46.534 227.376 46.534C242.557 46.534 254.863 58.8361 254.863 74.0114C254.863 89.1868 242.557 101.489 227.376 101.489Z" fill="#6A62AB" stroke="#231F20" stroke-width="2.36952" stroke-miterlimit="10"/>
<path d="M203.75 84.5867C207.245 92.1927 214.329 97.9714 223.24 99.456C237.497 101.809 250.978 92.1698 253.332 77.8943C254.657 69.9229 252.189 62.1799 247.277 56.4925C249.402 61.0607 250.201 66.3369 249.31 71.636C246.934 85.9114 233.453 95.5502 219.173 93.1976C212.958 92.1698 207.565 88.9949 203.727 84.5867H203.75Z" fill="#5856A5"/>
<path d="M154.305 44.1814C154.305 44.1814 130.062 52.0843 139.544 80.4754L154.305 44.1814Z" fill="#6A62AB" stroke="#231F20" stroke-width="2.36952" stroke-miterlimit="10"/>
<path d="M227.445 83.0107C222.17 83.0107 217.894 78.7362 217.894 73.4633C217.894 68.1904 222.17 63.9158 227.445 63.9158C232.72 63.9158 236.996 68.1904 236.996 73.4633C236.996 78.7362 232.72 83.0107 227.445 83.0107Z" fill="#231F20" stroke="#231F20" stroke-width="2.36952" stroke-miterlimit="10"/>
<path d="M231.054 73.5546C229.06 73.5546 227.444 71.9389 227.444 69.9458C227.444 67.9527 229.06 66.3369 231.054 66.3369C233.048 66.3369 234.664 67.9527 234.664 69.9458C234.664 71.9389 233.048 73.5546 231.054 73.5546Z" fill="white"/>
<path d="M234.005 66.8504C231.214 65.0088 230.287 61.4932 231.935 58.9982C233.582 56.5031 237.18 55.9734 239.971 57.8151C242.762 59.6567 243.689 63.1723 242.041 65.6674C240.393 68.1624 236.795 68.6921 234.005 66.8504Z" fill="white"/>
<path d="M205.121 336.817L192.6 323.318L204.276 337.571L205.121 336.817Z" fill="#231F20"/>
<path d="M161.771 91.1494C161.151 89.7273 162.767 87.6502 165.381 86.5102C167.995 85.3702 170.617 85.599 171.238 87.0211C171.858 88.4433 170.242 90.5203 167.628 91.6603C165.014 92.8003 162.392 92.5716 161.771 91.1494Z" fill="#231F20"/>
<path d="M144.006 85.2097C142.804 83.3279 142.657 81.274 143.678 80.6222C144.699 79.9705 146.501 80.9677 147.703 82.8495C148.905 84.7314 149.052 86.7853 148.031 87.437C147.01 88.0888 145.208 87.0916 144.006 85.2097Z" fill="#231F20"/>
<path d="M299.602 20.7697C300.379 26.0916 303.326 53.9802 280.866 64.3956C280.866 64.3956 288.2 121.041 268.299 136.481C268.299 136.481 271.178 144.704 270.652 150.46C270.652 150.46 288.703 136.915 291.331 110.465L294.187 89.4062C294.187 89.4062 305.2 61.2435 305.725 47.9045C306.182 36.4156 301.201 23.9674 299.808 20.7012C299.762 20.587 299.579 20.6326 299.602 20.7697Z" fill="#6A62AB"/>
<path d="M268.299 136.481C268.299 136.481 271.018 142.831 270.287 146.599C270.287 146.599 255.07 159.733 233.409 165.352C233.409 165.352 215.153 171.61 202.632 171.93C190.11 172.25 185.244 171.108 185.244 171.108C185.244 171.108 173.888 169.417 162.806 164.255V160.075C162.806 160.075 175.716 164.666 185.929 165.375C196.143 166.083 209.715 163.867 209.715 163.867C209.715 163.867 221.139 162.36 229.662 159.253C238.185 156.147 246.684 152.881 250.866 150.003C255.047 147.125 264.232 142.648 268.299 136.504V136.481Z" fill="#9CB0B3"/>
<path d="M138.199 99.9357L137.354 94.9108C137.354 94.9108 160.637 98.6795 170.622 102.448C179.761 105.897 186.913 107.884 190.843 109.255C194.773 110.625 217.919 119.853 217.919 119.853C217.919 119.853 225.253 123.188 231.514 123.987C237.775 124.787 253.7 124.855 253.7 124.855C253.7 124.855 259.275 126.225 256.693 129.332C254.112 132.438 244.584 138.331 244.584 138.331L230.12 145.686C230.12 145.686 213.829 151.967 211.064 152.424C208.299 152.881 192.511 156.261 186.867 156.238C181.224 156.215 168.314 156.467 166.509 156.238L160.477 155.896L160.317 152.561C160.317 152.561 179.304 153.726 185.885 152.995C192.465 152.264 203.958 150.117 203.958 150.117C203.958 150.117 216.457 146.965 220.912 145.686C225.368 144.407 239.808 136.618 239.808 136.618C239.808 136.618 251.118 129.789 252.124 128.532C252.124 128.532 240.996 128.898 235.787 127.824C230.577 126.751 223.677 126.18 211.818 121.68C199.96 117.181 183.668 110.739 183.668 110.739C183.668 110.739 163.561 102.037 149.258 100.53C137.559 99.2962 138.153 99.9357 138.153 99.9357H138.199Z" fill="#F8F4AE"/>
<path d="M240.424 125.175C240.424 125.175 236.906 114.166 246.731 116.518C247.348 116.655 247.919 116.838 248.49 117.044C255.733 119.647 259.457 127.55 258.064 135.111C257.013 140.798 254.271 146.782 247.028 138.445C245.977 137.235 245.131 135.864 244.491 134.403L240.424 125.175Z" fill="#F8F4AE"/>
<path d="M244.127 122.388C249.154 126.066 252.65 131.525 251.599 137.966C256.191 132.096 251.21 123.005 244.127 122.388Z" fill="#231F20"/>
<path d="M187.78 141.255C187.78 141.255 199.227 136.527 207.864 137.212C216.501 137.897 219.494 140.273 219.494 140.273C219.494 140.273 194.566 151.35 169.021 151.35C169.021 151.35 165.525 141.369 177.909 136.892C190.293 132.415 196.211 134.037 196.211 134.037C196.211 134.037 190.476 137.12 187.78 141.255Z" fill="#F47E6E"/>
<path d="M251.255 161.971C251.255 161.971 245.657 173.894 245.406 175.036C245.155 176.178 234.096 189.723 255.597 219.736C255.597 219.736 257.287 221.86 258.59 224.167C258.59 224.167 238.323 260.917 192.031 261.603C192.031 261.603 192.945 252.147 193.608 247.83C194.27 243.513 203.044 211.97 203.044 211.97C203.044 211.97 204.506 192.464 195.71 181.683C187.05 171.062 182.48 170.171 182.846 169.965L251.255 161.971Z" fill="#9CB0B3"/>
<path d="M214.033 187.804C213.964 187.621 213.759 187.484 213.553 187.416C213.279 187.302 212.502 186.936 212.228 186.822C203.499 182.779 194.863 178.371 186.98 172.889L186.797 173.026C189.173 178.005 194.474 180.449 199.25 182.482C202.723 183.99 206.607 185.474 210.217 186.662C211.177 186.959 212.753 187.484 213.69 187.781C213.827 187.644 213.873 187.667 214.056 187.827L214.033 187.804Z" fill="#231F20"/>
<path d="M209.715 171.29C183.256 175.31 155.837 166.973 138.997 145.526C140.94 148.221 142.699 151.122 144.961 153.566C160.521 171.633 187.117 177.617 209.692 171.29H209.715Z" fill="#231F20"/>
<path d="M192.807 292.369C192.807 292.369 198.45 307.741 227.605 316.489C227.605 316.489 227.56 324.78 227.697 329.006C227.834 333.231 228.611 338.667 228.611 338.667L230.484 354.519L222.899 354.222C222.899 354.222 204.871 334.214 199.935 322.131C195 310.048 192.829 292.346 192.829 292.346L192.807 292.369Z" fill="#9CB0B3"/>
<path d="M195.526 180.335C205.83 198.494 202.449 212.518 197.399 231.384C195.937 237.118 194.452 242.851 192.807 248.538C191.23 257.035 190.476 265.577 190.407 274.188C191.001 295.339 193.766 318.157 206.881 335.516C211.291 341.546 217.392 348.466 221.916 354.679L221.985 354.77H222.099L230.484 354.542L222.099 354.313L222.282 354.405C222.282 354.382 215.655 344.949 215.633 344.926C210.4 338.279 205.168 331.427 201.603 323.821C195.16 308.244 192.784 290.999 192.692 274.188C192.669 265.874 193.446 256.852 194.817 249.018C198.016 237.62 200.735 226.108 202.814 214.437C205.168 202.696 201.9 190.271 195.548 180.335H195.526Z" fill="#231F20"/>
<path d="M355.102 209.891C355.102 209.891 363.214 256.235 351.447 299.678C351.447 299.678 326.564 322.451 308.239 331.358L294.621 311.464C294.621 311.464 358.255 303.881 355.125 209.891H355.102Z" fill="#9CB0B3"/>
<path d="M312.739 328.092C312.739 328.092 285.892 359.247 231.054 360.024C231.054 360.024 218.739 297.326 244.101 285.631C244.101 285.631 281.779 271.219 312.716 328.092H312.739Z" fill="#D9D1E8"/>
<path d="M312.739 328.092C294.026 346.456 268.001 356.072 242.182 358.425C238.48 358.767 234.756 358.813 231.032 359.019L232.037 359.841C229.683 346.251 228.564 332.272 229.546 318.522C230.597 306.805 232.997 292.575 244.33 286.659C258.61 282.182 274.627 287.161 286.28 296.298C297.385 304.612 305.679 316.101 312.716 328.092H312.739ZM312.739 328.092C306.182 316.032 298.07 303.744 287.126 295.247C275.313 285.585 258.542 279.967 243.553 284.786C231.351 290.862 228.427 306.051 227.307 318.339C226.302 332.706 227.673 347.004 230.209 361.097C234.253 360.823 238.32 360.777 242.365 360.366C268.321 357.671 294.666 347.415 312.739 328.092Z" fill="#231F20"/>
<path d="M275.702 350.202C275.702 350.202 271.886 327.567 256.898 314.616C256.898 314.616 260.119 349.859 256.783 355.844C256.783 355.844 267.682 353.788 275.702 350.225V350.202Z" fill="#6A62AB"/>
<path d="M267.34 355.41C266.632 341.523 264.392 327.201 257.332 315.027C260.394 321.24 262.016 328.024 262.999 334.83C263.89 341.591 264.232 348.558 263.913 355.318L267.34 355.387V355.41Z" fill="#231F20"/>
<path d="M294.803 104.298C294.803 104.298 300.835 142.168 251.71 161.286C251.71 161.286 247.049 170.582 245.198 175.013C245.198 175.013 281.893 160.806 295.397 140.181C308.901 119.556 309.175 119.35 309.175 119.35L294.78 104.275L294.803 104.298Z" fill="#6A62AB"/>
<path d="M231.718 166.265C251.048 164.073 270.287 155.165 283.356 140.387C292.29 129.172 295.672 114.097 295.192 100.05C294.575 88.8808 291.056 77.6203 284.384 68.6439C289.274 78.3969 291.696 89.2919 291.628 100.118C291.536 108.158 289.982 116.107 287.309 123.667C285.276 128.532 283.379 133.466 279.929 137.509C267.408 151.921 250.02 160.921 231.718 166.242V166.265Z" fill="#231F20"/>
<path d="M341.804 156.238C341.804 156.238 327.935 145.777 321.903 154.662C315.871 163.547 320.075 176.132 317.973 180.838C315.871 185.543 313.266 188.695 307.508 187.644C301.75 186.594 296.244 182.939 296.244 179.787C296.244 176.635 295.718 174.282 298.597 170.628C301.476 166.973 302.253 166.448 303.578 163.821C304.903 161.195 304.88 160.418 304.88 157.791V149.934C304.88 147.582 305.932 143.653 306.983 141.826C308.034 139.998 309.862 137.646 311.438 135.544C313.015 133.443 316.145 131.365 316.945 130.839C317.744 130.314 319.024 129.012 319.024 129.012L341.827 156.238H341.804Z" fill="#F0E930"/>
<path d="M365.635 212.472C365.635 212.472 365.109 228.758 350.44 224.03C335.771 219.324 330.013 229.192 330.013 229.192C330.013 229.192 315.87 238.168 311.163 224.555C306.456 210.942 309.586 206.191 316.395 204.113C323.204 202.034 326.357 202.103 327.911 198.402C329.465 194.702 330.013 176.726 330.539 174.716C331.064 172.706 342.055 163.365 347.813 172.501C353.571 181.637 361.956 199.339 365.612 212.472H365.635Z" fill="#E691BE"/>
<path d="M357.661 236.524C357.661 236.524 339.336 241.115 335.132 254.271C330.95 267.404 316.281 263.75 316.281 263.75C316.281 263.75 291.673 257.994 299.51 271.607C307.347 285.22 301.612 284.352 314.179 286.362C326.746 288.372 323.639 282.091 327.82 278.414C332.001 274.736 336.685 272.589 342.992 274.896C346.83 276.289 354.507 286.362 354.507 286.362C354.507 286.362 358.689 255.413 357.661 236.546V236.524Z" fill="#F0E930"/>
<path d="M293.479 104.892C293.479 104.892 345.323 144.841 355.537 197.512C365.75 250.182 355.537 292.598 355.537 292.598C355.537 292.598 364.973 281.406 373.542 279.647C382.11 277.888 372.034 255.87 372.034 255.87L377.38 253.106C378.477 252.535 379.185 251.416 379.208 250.182C379.345 245.477 379.003 233.92 372.811 228.963C372.811 228.963 382.818 222.888 383.024 220.329C383.23 217.771 369.475 201.28 369.475 201.28C369.475 201.28 375.758 195.205 376.352 192.258C376.946 189.312 361.82 173.597 361.82 173.597C361.82 173.597 366.733 165.946 366.733 162.794C366.733 159.642 348.865 147.673 348.865 147.673C348.865 147.673 351.812 139.633 351.812 137.258C351.812 134.882 331.386 127.505 331.386 127.505C331.386 127.505 332.962 118.802 332.962 117.226C332.962 115.65 316.671 110.557 312.147 111.722C312.147 111.722 313.723 103.682 313.129 102.494C312.535 101.306 299.58 100.141 293.479 104.847V104.892Z" fill="#E691BE"/>
<path d="M293.479 104.892C319.572 127.368 342.49 155.69 352.292 189.152C360.198 222.682 360.655 258.519 353.983 292.232L352.703 298.308L356.793 293.671C361.614 288.441 367.235 282.936 374.341 281.2C375.004 281.017 375.689 280.72 376.261 280.264C382.293 274.668 376.124 261.534 373.587 255.207L372.833 257.423L376.443 255.55C377.837 254.773 379.711 254.065 380.351 252.444C380.785 251.621 380.922 250.662 380.899 249.748C380.83 242.028 380.099 233.257 373.839 227.776L373.679 230.402C376.375 228.712 378.934 226.999 381.424 224.898C383.047 223.504 385.446 221.357 384.281 218.959C380.693 212.107 375.37 206.351 370.64 200.389L370.526 202.445C373.222 199.544 376.375 196.758 377.746 192.806C378.02 191.847 377.586 190.751 377.175 189.951C373.267 183.442 367.898 178.165 362.803 172.706L362.963 174.397C364.562 171.793 366.024 169.189 367.19 166.288C367.578 165.238 367.966 164.05 367.989 162.862C367.647 160.441 365.385 158.956 363.899 157.495C359.284 153.566 354.417 150.185 349.459 146.851L349.893 148.153C351.013 144.727 352.315 141.392 352.795 137.737C352.818 137.417 352.818 137.143 352.681 136.755C352.315 136.001 351.767 135.636 351.195 135.225C345.049 131.525 338.263 129.309 331.637 126.797L332.185 127.733C332.711 124.284 333.396 120.858 333.647 117.363C333.647 116.495 332.596 115.97 331.957 115.627C325.673 113.092 318.841 110.739 312.009 111.379L312.558 111.881C312.969 108.752 313.906 105.646 313.403 102.448C312.695 101.694 312.101 101.809 311.461 101.626C305.406 100.827 298.574 101.306 293.456 104.938L293.479 104.892ZM293.479 104.892C298.643 101.466 305.406 101.261 311.37 102.174C311.895 102.266 312.672 102.517 312.832 102.699C313.083 105.646 312.192 108.752 311.712 111.699L311.598 112.315L312.261 112.201C318.659 111.813 325.513 114.257 331.34 116.815C331.888 117.112 332.528 117.546 332.231 117.523C331.82 121.041 331.065 124.581 330.426 128.076C337.258 130.931 344.889 133.123 350.807 137.463C350.35 140.318 348.751 144.795 347.517 148.107C353.64 152.675 360.838 156.786 365.43 162.839C364.768 166.585 362.14 170.354 360.084 173.757L360.815 174.557C365.613 179.901 370.868 185.132 374.547 191.23C374.684 191.504 374.798 191.779 374.867 191.984C374.867 192.213 374.913 191.824 374.821 192.212C373.245 195.616 370.114 198.448 367.441 201.189L368.309 202.262C372.879 208.087 378.02 213.729 381.402 220.215C379.277 223.162 375.232 225.446 371.965 227.593L370.069 228.758C376.101 232.823 377.403 240.772 377.54 247.647C377.449 248.972 377.997 250.799 376.626 251.576L374.844 252.489C373.884 252.969 370.731 254.591 369.817 255.07C372.376 260.826 374.935 267.039 375.347 273.343C375.415 275.147 375.05 276.929 374.159 277.523C373.587 278.048 372.651 278.025 371.896 278.322C364.745 280.698 359.215 286.065 354.28 291.524L357.09 292.94C363.739 258.405 363.214 222.545 354.508 188.467C344.181 154.822 320.532 126.637 293.433 104.847L293.479 104.892Z" fill="#231F20"/>
<path d="M286.67 8.00162C286.67 8.00162 285.619 23.442 276.319 19.7875C267.02 16.1329 262.701 19.5362 262.701 19.5362C262.701 19.5362 262.313 32.4869 256.555 28.8324C250.797 25.1779 242.549 21.8888 239.784 24.7667C237.019 27.6447 242.274 29.8831 234.666 33.1493C227.08 36.4155 226.669 29.609 217.643 34.8624C208.618 40.0929 214.239 43.2449 206.767 44.8209C199.296 46.397 194.063 41.4177 189.082 50.1885C184.101 58.9594 175.693 53.0436 174.413 47.5618C172.882 41.0065 186.82 29.5405 189.562 28.6268C192.304 27.7132 199.456 28.3984 199.456 28.3984L213.051 24.9038L236.105 11.2907C236.105 11.2907 272.892 0.829609 286.647 8.02445L286.67 8.00162Z" fill="#E691BE"/>
<path d="M160.36 152.241C189.744 155.188 220.727 148.495 245.587 132.21L249.951 129.218L244.627 129.103C215.86 128.281 190.795 111.836 163.582 104.298C154.534 101.991 144.732 98.6109 135.341 100.986C135.158 101.055 134.998 101.101 134.792 101.215C134.564 101.352 134.45 101.352 134.061 101.672L136.415 104.161C137.237 103.476 137.854 101.786 137.649 100.735C136.598 95.5046 137.923 90.6395 139.796 85.7059C144.298 74.3997 151.038 63.8701 155.813 52.5411C159.561 41.0522 167.512 31.4819 180.033 29.7688C184.649 28.8552 188.967 30.3627 193.628 30.4084C198.312 30.1571 203.499 30.2028 207.84 27.8959C209.143 27.2107 210.719 26.2514 211.953 25.4519C218.351 21.432 225.114 17.6176 232.037 14.6711C261.558 1.49197 308.01 2.38275 304.88 45.4148C304.971 48.0415 303.737 51.6731 303.28 54.2085C300.264 66.0857 298.414 78.2826 294.072 89.8401C300.31 77.4604 304.743 64.03 307.667 50.4854C312.374 22.1172 295.877 3.639 267.27 3.84457C246.661 3.36491 227.171 11.6561 210.148 22.5512C209.006 23.2364 207.521 24.2871 206.355 24.8352C202.699 26.8224 197.696 26.7539 193.514 27.0051C188.944 26.8224 184.192 25.4519 179.553 26.4112C166.027 28.1928 156.659 38.7224 152.683 51.2163C147.885 62.6139 141.213 72.9379 136.598 84.5182C134.633 89.6345 133.102 95.4361 134.221 101.009C134.221 101.557 134.267 101.352 133.947 101.763L136.301 104.253C139.933 103.019 144.846 103.682 148.959 104.321C172.447 108.227 193.606 120.218 216.112 127.322C225.32 130.04 234.756 132.278 244.581 132.507L243.622 129.4C219.036 145.001 189.676 153.657 160.383 152.218L160.36 152.241Z" fill="#231F20"/>
<path d="M263.796 66.3369C263.27 51.6503 252.92 36.3242 237.36 34.7253C228.106 33.8345 218.258 35.1136 210.535 40.5497C206.171 43.8616 202.332 47.8816 199.225 52.3356C204.32 47.5618 209.895 42.6511 216.407 40.23C239.919 32.7153 257.718 42.1257 263.796 66.3369Z" fill="#231F20"/>
<path d="M239.123 323.371C238.373 321.255 240.165 318.688 243.127 317.639C246.088 316.589 249.098 317.454 249.848 319.57C250.599 321.687 248.806 324.253 245.845 325.303C242.883 326.352 239.874 325.487 239.123 323.371Z" fill="#8B8192"/>
<path d="M290.807 254.333C289.575 250.862 292.261 246.742 296.804 245.132C301.347 243.522 306.029 245.031 307.26 248.503C308.491 251.974 305.806 256.094 301.263 257.704C296.719 259.314 292.038 257.805 290.807 254.333Z" fill="#F0E930"/>
<path d="M269.17 301.183C268.541 299.412 269.903 297.313 272.21 296.495C274.517 295.677 276.897 296.451 277.526 298.222C278.154 299.994 276.793 302.093 274.485 302.911C272.178 303.728 269.798 302.955 269.17 301.183Z" fill="#F8F4AE"/>
<path d="M313.261 300.631C312.161 297.528 314.557 293.847 318.612 292.41C322.668 290.972 326.848 292.323 327.949 295.426C329.049 298.529 326.654 302.21 322.598 303.647C318.542 305.085 314.362 303.734 313.261 300.631Z" fill="#E691BE"/>
<path d="M271.414 188.748C267.239 186.339 265.348 181.8 267.191 178.61C269.033 175.42 273.911 174.787 278.086 177.196C282.26 179.606 284.151 184.145 282.309 187.335C280.466 190.525 275.588 191.158 271.414 188.748Z" fill="#E691BE"/>
<path d="M281.849 43.5875C279.287 43.5875 277.211 41.4502 277.211 38.8137C277.211 36.1773 279.287 34.04 281.849 34.04C284.411 34.04 286.487 36.1773 286.487 38.8137C286.487 41.4502 284.411 43.5875 281.849 43.5875Z" fill="#F0E930"/>
<path d="M165.956 63.2991C163.395 63.2991 161.318 61.1618 161.318 58.5253C161.318 55.8889 163.395 53.7516 165.956 53.7516C168.518 53.7516 170.595 55.8889 170.595 58.5253C170.595 61.1618 168.518 63.2991 165.956 63.2991Z" fill="#E691BE"/>
<path d="M272.547 112.909C269.986 112.909 267.909 109.821 267.909 106.011C267.909 102.202 269.986 99.1135 272.547 99.1135C275.109 99.1135 277.186 102.202 277.186 106.011C277.186 109.821 275.109 112.909 272.547 112.909Z" fill="#F8F4AE"/>
<path d="M111.623 123.736C95.7206 120.081 81.2344 114.691 81.2344 114.691C80.6631 114.485 79.7263 114.12 78.5382 113.663C77.4186 113.229 75.8877 112.612 74.037 111.859C72.7574 111.333 71.3637 110.739 69.8328 110.077C67.982 98.5424 63.7321 85.4318 52.102 81.0464C48.629 79.7216 45.1102 79.2648 41.6829 79.6759C25.4602 81.6402 17.0975 104.572 14.3328 111.95C12.3906 117.158 11.4081 121.543 10.8826 124.124C10.6769 125.038 10.4485 125.951 10.2428 126.888C7.88937 136.938 6.97543 146.668 6.67839 149.82C6.35851 153.2 6.01575 157.586 5.83296 162.771C5.8101 164.004 5.78726 165.237 5.76442 166.448C5.76442 167.476 5.76442 168.504 5.76442 169.554C5.85582 175.836 6.33565 181.774 7.08966 187.37C7.68373 192.464 8.80333 197.534 11.1568 202.08C15.7951 211.01 25.3688 215.944 35.3537 214.733C36.5876 214.574 37.8215 214.345 38.9867 214.003C50.9596 210.599 55.5293 199.796 57.4943 195.182C57.6314 194.862 57.7685 194.542 57.8828 194.222C57.9056 194.222 57.997 194.222 58.1113 194.2C69.4443 192.738 79.6349 192.715 88.9116 192.715C89.757 192.715 90.4425 192.715 90.5796 192.715C91.7906 192.715 96.2689 192.738 102.827 192.943C106.414 193.058 110.847 193.217 115.988 193.491C115.439 196.415 114.594 199.225 113.497 201.897C112.423 204.432 111.052 207.105 110.412 209.708C120.032 214.185 131.205 218.388 141.761 219.918C148.136 220.832 148.433 221.106 150.375 214.528C152.82 206.259 154.511 197.352 158.738 189.86C162.005 184.058 167.261 175.699 166.415 168.686C166.598 165.032 166.369 161.4 165.867 157.814C165.181 152.995 163.97 148.221 162.554 143.539C161.914 141.392 159.378 129.423 156.567 129.286C145.303 128.715 129.651 127.162 121.243 125.677C117.518 125.015 113.588 124.17 113.588 124.17C113.588 124.17 112.629 123.964 111.623 123.736Z" fill="#5856A5"/>
<path d="M137.764 179.125C139.5 189.357 139.317 200.344 136.05 209.708C130.909 208.955 125.676 207.059 120.673 205.186C123.826 197.671 125.151 189.015 124.465 180.449C129.241 180.449 132.965 179.147 137.741 179.147L137.764 179.125Z" fill="#7C486C"/>
<path d="M157.367 158.979C158.646 168.664 157.732 179.741 150.192 188.055C150.192 188.055 135.889 186.525 117.084 185.52C88.477 183.99 49.4511 183.693 34.7135 191.984L37.9581 146.736L40.997 104.55C40.997 104.55 71.5917 125.198 119.392 133.831C129.239 135.613 139.819 136.892 150.992 137.372C150.992 137.372 155.813 147.125 157.367 159.002V158.979Z" fill="#F0E930"/>
<path d="M157.366 158.979C117.266 162.36 76.5496 158.134 37.9578 146.714L40.9967 104.527C40.9967 104.527 71.5914 125.175 119.391 133.809C129.239 135.59 139.818 136.869 150.991 137.349C150.991 137.349 155.812 147.102 157.366 158.979Z" fill="#CFE9ED"/>
<path d="M15.3623 189.791C16.1163 194.268 17.1674 198.836 20.5947 202.331C23.9992 205.826 30.3969 207.973 36.429 206.26C43.8321 204.158 47.2823 197.694 49.6586 192.121C58.9581 170.194 65.1273 147.65 62.9566 125.586C62.0198 116.038 61.1744 93.4261 48.836 88.7438C32.2477 82.4626 23.4737 108.181 21.0517 116.427C13.8086 141.118 11.2724 165.694 15.3852 189.769L15.3623 189.791Z" fill="#E691BE"/>
<path d="M59.2984 127.642C59.4584 130.245 59.5269 132.826 59.4812 135.43C59.2984 146.577 57.2649 157.677 54.0432 168.641C52.0096 175.607 49.4734 182.528 46.663 189.357C44.538 194.474 41.4991 200.344 35.1928 201.897C30.0747 203.153 24.728 200.778 21.9176 197.306C19.1072 193.834 18.3303 189.449 17.782 185.223C14.8344 162.36 17.4849 139.405 24.134 116.632C26.3503 109.026 34.3017 85.3405 48.171 92.1927C58.4758 97.2862 58.7044 118.574 59.2984 127.596V127.642Z" fill="#7C486C"/>
<path d="M150.191 188.055C150.191 188.055 135.887 186.525 117.083 185.52C122.567 168.938 123.389 150.825 119.39 133.831C129.238 135.613 139.817 136.892 150.991 137.372C150.991 137.372 166.939 169.6 150.191 188.078V188.055Z" fill="#E691BE"/>
<path d="M144.298 181.386C146.034 191.619 145.851 202.605 142.584 211.97C137.443 211.216 132.211 209.32 127.207 207.447C130.36 199.933 131.685 191.276 131 182.711C135.775 182.711 139.499 181.409 144.275 181.409L144.298 181.386Z" fill="#E691BE"/>
<path d="M152.203 150.871C151.906 147.33 151.494 143.973 150.192 140.684C140.847 140.729 131.844 140.067 122.568 139.062C123.733 142.785 124.144 146.714 123.802 150.597C133.467 151.031 142.56 150.46 152.226 150.894L152.203 150.871Z" fill="#BBDDA9"/>
<path d="M152.751 157.472C152.728 156.215 153.139 154.799 153.116 153.543C143.314 153.68 133.672 153.474 123.87 153.611C123.961 154.913 124.075 156.215 124.167 157.517C133.672 157.472 143.268 156.901 152.751 157.472Z" fill="#BBDDA9"/>
<path d="M59.46 135.453C59.2772 146.599 57.2436 157.7 54.0219 168.664C46.5046 164.986 39.1473 161.857 31.6071 158.18C32.1555 150.802 33.7778 144.201 33.8692 136.367C42.2776 135.339 50.983 134.859 59.46 134.814C59.46 135.042 59.46 135.202 59.46 135.43V135.453Z" fill="white"/>
<path d="M53.3573 165.009C55.2081 161.651 55.4823 157.654 55.8936 153.908C47.3024 153.246 41.8415 152.332 33.4559 150.322C33.1589 152.492 33.0218 154.708 32.4963 156.855C39.0767 160.258 46.2513 162.953 53.3573 165.009Z" fill="#F0E930"/>
<path d="M138.677 179.216C136.781 179.033 134.725 179.216 132.988 180.061C131.823 180.632 132.303 182.185 133.536 182.185C135.616 182.185 137.695 182.025 139.774 182.003C140.597 182.003 142.196 182.163 142.15 180.952C142.105 179.65 139.591 179.307 138.677 179.216Z" fill="#A8BAAA"/>
<path d="M141.945 173.141C139.203 172.798 135.661 172.752 133.102 173.894C132.051 174.351 132.074 176.27 133.399 176.315C134.793 176.361 136.118 176.11 137.512 176.018C138.975 175.927 140.437 175.973 141.922 175.973C143.544 175.973 143.544 173.323 141.968 173.141H141.945Z" fill="#A8BAAA"/>
<path d="M309.404 330.833C309.404 330.833 310.867 321.491 299.968 320.007C295.284 319.367 294.324 318.248 294.758 317.197C295.718 314.89 294.552 312.172 292.199 311.281C287.949 309.683 282.945 309.249 282.305 315.621C281.163 326.95 286.213 333.46 286.213 333.46C286.213 333.46 286.944 343.236 288.018 344.127C289.092 345.017 300.31 338.508 309.381 330.856L309.404 330.833Z" fill="#E691BE"/>
<path d="M270.287 199.887C270.287 199.887 250.637 237.597 207.041 250.16C207.041 250.16 167.375 247.419 133.582 208.932C133.582 208.932 102.941 208.544 91.5397 194.793C91.5397 194.793 81.7147 180.267 97.0463 177.914C97.0463 177.914 87.6097 171.633 93.5048 162.999C95.3784 160.258 98.5772 158.728 102.05 157.951C110.779 155.964 119.872 158.728 126.636 164.575C133.399 170.422 141.328 178.439 142.95 185.36C142.95 185.36 149.713 193.469 163.468 196.689C177.223 199.91 201.58 210.12 207.064 219.165C207.064 219.165 216.5 198.745 242.411 177.549C268.345 156.352 270.31 199.933 270.31 199.933L270.287 199.887Z" fill="#D9D1E8"/>
<path d="M96.9085 179.033C102.347 179.513 108.127 180.198 112.88 183.145C108.447 179.513 102.712 178.028 97.1827 176.772L96.9085 179.033Z" fill="#231F20"/>
<path d="M200.66 233.033C197.808 231.386 196.519 228.281 197.78 226.096C199.042 223.911 202.378 223.474 205.23 225.12C208.082 226.767 209.372 229.872 208.11 232.057C206.848 234.242 203.512 234.679 200.66 233.033Z" fill="#8B8192"/>
<path d="M258.587 224.167C258.587 224.167 269.463 210.531 269.075 204.501C268.686 198.471 260.232 207.493 260.232 207.493C260.232 207.493 243.004 224.189 238.571 226.999C234.139 229.808 214.009 242.119 207.725 242.965C201.442 243.81 170.665 230.288 168.768 229.534C166.872 228.78 138.516 207.95 137.739 206.785C136.962 205.62 128.44 202.719 124.715 202.422C120.991 202.125 101.729 197.603 97.7993 195.593C93.8693 193.583 90.2592 189.38 90.2592 189.38C90.2592 189.38 90.3963 194.748 99.7415 198.928C109.11 203.107 106.231 203.519 116.17 205.209C126.109 206.899 130.839 206.648 133.581 208.292C136.323 209.937 140.001 213.591 140.001 213.591C140.001 213.591 152.5 225.857 158.737 229.534C164.975 233.212 171.898 237.871 173.863 238.328C175.828 238.785 194.359 248.401 206.994 248.857C206.994 248.857 220.864 244.335 232.197 237.414C243.53 230.494 246.02 227.867 246.02 227.867L253.743 220.74L255.48 219.324L258.564 224.189L258.587 224.167Z" fill="#6A62AB"/>
<path d="M163.903 221.357C161.341 221.357 159.264 219.22 159.264 216.583C159.264 213.947 161.341 211.81 163.903 211.81C166.464 211.81 168.541 213.947 168.541 216.583C168.541 219.22 166.464 221.357 163.903 221.357Z" fill="#E691BE"/>
<path d="M132.325 191.093C129.763 191.093 127.686 188.956 127.686 186.32C127.686 183.683 129.763 181.546 132.325 181.546C134.886 181.546 136.963 183.683 136.963 186.32C136.963 188.956 134.886 191.093 132.325 191.093Z" fill="#F0E930"/>
<path d="M254.156 213.318L255.07 219.119C255.07 219.119 242.046 231.362 236.38 234.24L234.529 228.712L254.179 213.318H254.156Z" fill="#BB6AA0"/>
<path d="M254.156 213.317C254.156 213.317 254.544 204.295 243.554 204.295C238.824 204.295 237.727 203.313 238.024 202.217C238.664 199.796 237.133 197.26 234.688 196.689C230.256 195.684 225.252 195.936 225.48 202.331C225.869 213.728 231.764 219.484 231.764 219.484C231.764 219.484 233.34 227.981 234.505 228.712C235.671 229.443 247.072 223.116 254.156 213.317Z" fill="#E691BE"/>
<path d="M252.807 171.93C242.41 176.087 233.842 183.807 226.188 191.801C218.602 199.796 211.747 209.092 206.081 218.571L208 218.502C204.001 213.66 199.089 210.348 193.971 207.287C186.271 202.811 177.931 199.658 169.431 197.123C161.068 194.999 152.591 192.486 146.422 186.228C142.126 182.231 139.842 176.703 136.14 172.227C130.679 165.237 123.322 158.865 114.342 156.969C108.424 155.736 101.73 155.804 96.5201 159.39C93.8925 161.217 91.8132 163.661 90.6479 166.813C90.1452 170.399 91.1277 174.168 93.6868 176.795C94.5094 177.686 95.4919 178.348 96.5201 178.942L96.68 176.863C92.8186 178.508 88.1802 180.792 87.3577 185.383C87.2206 189.814 88.1802 194.268 91.9503 197.009C98.348 202.102 106.048 205.163 113.817 207.539C118.478 208.589 123.436 208.955 128.12 209.549C132.873 210.028 136.163 213.409 139.316 216.721C148.524 225.674 159.012 233.303 170.413 239.287C181.884 245.294 194.313 249.406 207.132 251.347C219.47 248.127 230.62 241.617 240.56 233.805C250.407 226.04 258.953 216.789 266.15 206.625C254.772 221.38 240.468 233.874 223.834 242.211C219.082 244.952 210.879 247.898 207.246 249.04C182.204 245.294 158.989 232.641 140.916 215.076C137.557 211.467 133.627 207.79 128.44 207.287L123.665 206.739C114.159 206.077 105.294 202.719 97.1599 197.945C93.2984 195.639 89.6426 192.669 89.7568 187.781C88.6829 183.008 93.664 180.655 97.4797 178.988L99.7189 178.074L97.6397 176.909C94.1438 175.127 92.4073 171.039 92.9328 167.27C93.6183 165.649 95.629 162.519 97.8453 161.263C104.928 156.672 114.662 158.294 121.745 162.245C126.658 165.055 130.839 169.12 134.381 173.643C139.636 180.906 143.703 189.038 152.089 193.332C159.903 197.808 168.86 198.813 177.108 202.057C187.687 206.031 198.678 211.216 206.172 219.85L207.223 221.152L208.091 219.781C219.676 201.44 232.768 181.683 252.875 171.975L252.807 171.93Z" fill="#231F20"/>
<path d="M353.916 237.757C353.916 237.757 349.986 264.595 342.994 274.873C342.994 274.873 351.562 281.634 354.51 286.339C354.51 286.339 360.359 246.985 357.663 236.524L353.916 237.757Z" fill="#B3B034"/>
</svg>
