<svg width="166" height="166" viewBox="0 0 166 166" fill="none" xmlns="http://www.w3.org/2000/svg">
<rect width="166" height="166" rx="83" fill="#CCCCCC"/>
<path fill-rule="evenodd" clip-rule="evenodd" d="M107.901 66.4C107.901 80.1519 96.7529 91.3 83.001 91.3C69.2491 91.3 58.101 80.1519 58.101 66.4C58.101 52.6481 69.2491 41.5 83.001 41.5C96.7529 41.5 107.901 52.6481 107.901 66.4ZM99.601 66.4C99.601 75.5679 92.1689 83 83.001 83C73.8331 83 66.401 75.5679 66.401 66.4C66.401 57.2321 73.8331 49.8 83.001 49.8C92.1689 49.8 99.601 57.2321 99.601 66.4Z" fill="white"/>
<path d="M83.001 103.75C56.1323 103.75 33.2395 119.638 24.519 141.897C26.6434 144.006 28.8813 146.002 31.2227 147.873C37.7163 127.437 58.0874 112.05 83.001 112.05C107.915 112.05 128.286 127.437 134.779 147.873C137.121 146.002 139.359 144.007 141.483 141.897C132.763 119.638 109.87 103.75 83.001 103.75Z" fill="white"/>
</svg>
