<svg width="16" height="16" viewBox="0 0 16 16" fill="none" xmlns="http://www.w3.org/2000/svg">
<rect width="16" height="16" rx="8" fill="white"/>
<path fill-rule="evenodd" clip-rule="evenodd" d="M10.4001 6.4C10.4001 7.72548 9.32558 8.8 8.0001 8.8C6.67461 8.8 5.6001 7.72548 5.6001 6.4C5.6001 5.07452 6.67461 4 8.0001 4C9.32558 4 10.4001 5.07452 10.4001 6.4ZM9.6001 6.4C9.6001 7.28366 8.88375 8 8.0001 8C7.11644 8 6.4001 7.28366 6.4001 6.4C6.4001 5.51634 7.11644 4.8 8.0001 4.8C8.88375 4.8 9.6001 5.51634 9.6001 6.4Z" fill="#09090B"/>
<path d="M8.0001 10C5.41034 10 3.20381 11.5314 2.36328 13.6768C2.56804 13.8801 2.78374 14.0725 3.00941 14.2528C3.63531 12.2831 5.59878 10.8 8.0001 10.8C10.4014 10.8 12.3649 12.2831 12.9908 14.2528C13.2165 14.0725 13.4322 13.8801 13.6369 13.6768C12.7964 11.5314 10.5899 10 8.0001 10Z" fill="#09090B"/>
</svg>
