<?xml version="1.0" encoding="UTF-8"?>
<svg id="OBJECTS" xmlns="http://www.w3.org/2000/svg" version="1.1" viewBox="0 0 500 500">
  <!-- Generator: Adobe Illustrator 30.0.0, SVG Export Plug-In . SVG Version: 2.1.1 Build 123)  -->
  <defs>
    <style>
      .st0 {
        fill: #a7b9a9;
      }

      .st1 {
        fill: #f88dd5;
      }

      .st2 {
        fill: #cfe9ed;
      }

      .st3 {
        fill: #b7f0ad;
      }

      .st4 {
        fill: #7c476b;
      }

      .st5 {
        fill: #fff;
      }

      .st6 {
        fill: #582ff5;
      }

      .st7 {
        fill: #231f20;
      }

      .st8 {
        fill: #f0e92f;
      }
    </style>
  </defs>
  <g>
    <path class="st7" d="M217.13,263.42c-1.62,0-2.88-.32-3.8-.95-.92-.64-1.56-1.5-1.92-2.6-.36-1.1-.54-2.37-.54-3.8v-7.87c0-1.51.18-2.81.54-3.92.36-1.11,1-1.96,1.92-2.56.92-.6,2.18-.9,3.8-.9,1.52,0,2.72.26,3.58.78.86.52,1.48,1.26,1.84,2.22.36.96.54,2.08.54,3.35v1.85h-3.87v-1.91c0-.62-.03-1.18-.1-1.69-.06-.51-.24-.91-.52-1.21-.28-.3-.77-.45-1.46-.45s-1.19.16-1.51.48-.52.74-.61,1.28c-.09.54-.14,1.14-.14,1.81v9.58c0,.8.06,1.46.19,1.97.13.52.36.91.69,1.17.34.26.79.39,1.38.39.67,0,1.15-.16,1.43-.48.28-.32.46-.74.53-1.27.07-.53.11-1.12.11-1.77v-1.99h3.87v1.77c0,1.31-.17,2.46-.52,3.47-.35,1.01-.95,1.8-1.81,2.37-.86.57-2.07.86-3.64.86Z"/>
    <path class="st7" d="M225.9,263.12v-22.06h6.48c1.33,0,2.4.25,3.23.73.83.49,1.43,1.2,1.82,2.14.39.94.59,2.07.59,3.39,0,1.43-.25,2.59-.73,3.47-.49.88-1.18,1.52-2.06,1.92-.88.4-1.92.6-3.12.6h-2.18v9.8h-4.03ZM229.93,250.49h1.52c.73,0,1.29-.1,1.7-.31.41-.21.69-.54.84-1.01s.23-1.08.23-1.87-.06-1.45-.18-1.95c-.12-.5-.37-.87-.76-1.1-.39-.24-1-.35-1.84-.35h-1.52v6.59Z"/>
    <path class="st7" d="M240.25,263.12v-22.06h9.26v2.83h-5.23v6.34h4.11v2.8h-4.11v7.3h5.28v2.78h-9.31Z"/>
    <path class="st7" d="M250.65,267.32v-7.05h.79c.36-.2.71-.47,1.05-.8s.64-.79.91-1.35c.27-.56.52-1.28.75-2.17.23-.88.43-1.96.6-3.23.17-1.27.3-2.78.39-4.52l.49-7.13h9.75v19.2h2.31v7.05h-2.75l-.3-4.19h-10.87l-.38,4.19h-2.75ZM255.2,260.26h6.37v-16.31h-2.78l-.25,4.87c-.07,1.74-.19,3.22-.35,4.43-.16,1.21-.35,2.21-.57,3-.22.79-.46,1.43-.72,1.92-.26.49-.54.89-.83,1.2s-.58.61-.87.9Z"/>
    <path class="st7" d="M269.96,263.12v-22.06h4v9.23h4.52v-9.23h4v22.06h-4v-9.97h-4.52v9.97h-4Z"/>
    <path class="st7" d="M291.85,263.42c-1.56,0-2.8-.29-3.73-.87s-1.59-1.42-1.99-2.5c-.4-1.09-.6-2.38-.6-3.87v-8.25c0-1.49.2-2.76.6-3.83s1.06-1.87,1.99-2.44,2.17-.84,3.73-.84,2.85.28,3.77.84c.92.56,1.58,1.38,1.99,2.44.41,1.06.61,2.34.61,3.83v8.28c0,1.47-.2,2.75-.61,3.83-.41,1.08-1.07,1.92-1.99,2.5-.92.59-2.17.88-3.77.88ZM291.85,260.45c.67,0,1.17-.15,1.48-.44.32-.29.53-.69.64-1.2.11-.51.16-1.06.16-1.66v-10.16c0-.62-.05-1.17-.16-1.66-.11-.49-.32-.88-.64-1.16-.32-.28-.81-.42-1.48-.42-.64,0-1.12.14-1.44.42-.33.28-.54.67-.65,1.16-.11.49-.16,1.04-.16,1.66v10.16c0,.6.05,1.15.15,1.66.1.51.31.91.64,1.2s.82.44,1.47.44Z"/>
    <path class="st7" d="M301.25,263.12v-22.06h3.87v19.17h3.32v-19.17h3.84v19.17h3.16v-19.17h3.87v22.06h-18.05Z"/>
    <path class="st7" d="M322.73,263.12v-22.06h4v9.26h.82l3.57-9.26h4l-4.19,10.4,4.52,11.66h-4.08l-3.81-10.16h-.82v10.16h-4Z"/>
    <path class="st7" d="M343.4,263.42c-1.56,0-2.81-.29-3.73-.87s-1.59-1.42-1.99-2.5c-.4-1.09-.6-2.38-.6-3.87v-8.25c0-1.49.2-2.76.6-3.83s1.06-1.87,1.99-2.44,2.17-.84,3.73-.84,2.85.28,3.77.84c.92.56,1.58,1.38,1.99,2.44.41,1.06.61,2.34.61,3.83v8.28c0,1.47-.2,2.75-.61,3.83-.41,1.08-1.07,1.92-1.99,2.5-.92.59-2.17.88-3.77.88ZM343.4,260.45c.67,0,1.17-.15,1.48-.44s.53-.69.64-1.2c.11-.51.16-1.06.16-1.66v-10.16c0-.62-.05-1.17-.16-1.66-.11-.49-.32-.88-.64-1.16-.32-.28-.81-.42-1.48-.42-.64,0-1.12.14-1.44.42-.33.28-.54.67-.65,1.16-.11.49-.16,1.04-.16,1.66v10.16c0,.6.05,1.15.15,1.66.1.51.31.91.64,1.2.33.29.82.44,1.47.44Z"/>
    <path class="st7" d="M351.21,263.12v-2.89c.51.02.94-.01,1.29-.1.35-.08.65-.27.9-.56s.45-.74.61-1.35c.16-.61.3-1.43.41-2.46.11-1.04.23-2.35.35-3.95l.71-10.76h10.73v22.06h-4v-19.03h-3.16l-.49,8.22c-.11,1.62-.23,3.04-.37,4.28-.14,1.24-.34,2.28-.63,3.15-.28.86-.68,1.56-1.18,2.08-.51.53-1.18.89-2.02,1.1-.83.21-1.89.28-3.16.2Z"/>
    <path class="st7" d="M375.56,263.42c-1.62,0-2.88-.32-3.8-.95-.92-.64-1.56-1.5-1.92-2.6-.36-1.1-.54-2.37-.54-3.8v-7.87c0-1.51.18-2.81.54-3.92.36-1.11,1-1.96,1.92-2.56.92-.6,2.18-.9,3.8-.9,1.52,0,2.72.26,3.58.78.86.52,1.47,1.26,1.84,2.22.36.96.54,2.08.54,3.35v1.85h-3.87v-1.91c0-.62-.03-1.18-.1-1.69s-.24-.91-.52-1.21c-.28-.3-.77-.45-1.46-.45s-1.19.16-1.51.48c-.32.32-.52.74-.61,1.28-.09.54-.14,1.14-.14,1.81v9.58c0,.8.06,1.46.19,1.97.13.52.36.91.7,1.17.33.26.79.39,1.38.39.67,0,1.15-.16,1.43-.48.28-.32.46-.74.53-1.27.07-.53.11-1.12.11-1.77v-1.99h3.87v1.77c0,1.31-.17,2.46-.52,3.47-.35,1.01-.95,1.8-1.81,2.37-.86.57-2.07.86-3.63.86Z"/>
    <path class="st7" d="M384.38,263.12v-22.06h4v9.26h.82l3.57-9.26h4l-4.19,10.4,4.52,11.66h-4.08l-3.81-10.16h-.82v10.16h-4Z"/>
    <path class="st7" d="M399.11,263.12v-22.06h3.29v13.91l6.04-13.91h2.7v22.06h-3.32v-14.13l-6.07,14.13h-2.64Z"/>
    <path class="st7" d="M421.2,263.12v-22.06h9.42v2.97h-5.42v19.09h-4Z"/>
    <path class="st7" d="M431.3,263.12v-2.89c.51.02.94-.01,1.29-.1.35-.08.65-.27.9-.56s.45-.74.61-1.35c.16-.61.3-1.43.41-2.46.11-1.04.23-2.35.35-3.95l.71-10.76h10.73v22.06h-4v-19.03h-3.16l-.49,8.22c-.11,1.62-.23,3.04-.37,4.28-.14,1.24-.34,2.28-.63,3.15-.28.86-.68,1.56-1.18,2.08-.51.53-1.18.89-2.02,1.1-.83.21-1.89.28-3.16.2Z"/>
    <path class="st7" d="M448.59,263.12l4.41-22.06h4.3l4.41,22.06h-3.73l-.87-5.09h-3.84l-.9,5.09h-3.79ZM453.68,255.47h3l-1.5-9.26-1.5,9.26Z"/>
    <path class="st7" d="M469.86,263.42c-1.62,0-2.88-.32-3.8-.95-.92-.64-1.56-1.5-1.92-2.6-.36-1.1-.54-2.37-.54-3.8v-7.87c0-1.51.18-2.81.54-3.92.36-1.11,1-1.96,1.92-2.56.92-.6,2.18-.9,3.8-.9,1.52,0,2.72.26,3.58.78.86.52,1.47,1.26,1.84,2.22.36.96.54,2.08.54,3.35v1.85h-3.87v-1.91c0-.62-.03-1.18-.1-1.69s-.24-.91-.52-1.21c-.28-.3-.77-.45-1.46-.45s-1.19.16-1.51.48c-.32.32-.52.74-.61,1.28-.09.54-.14,1.14-.14,1.81v9.58c0,.8.06,1.46.19,1.97.13.52.36.91.7,1.17.33.26.79.39,1.38.39.67,0,1.15-.16,1.43-.48.28-.32.46-.74.53-1.27.07-.53.11-1.12.11-1.77v-1.99h3.87v1.77c0,1.31-.17,2.46-.52,3.47-.35,1.01-.95,1.8-1.81,2.37-.86.57-2.07.86-3.63.86Z"/>
  </g>
  <g>
    <path class="st6" d="M69.71,232.3c12.1-2.78,23.11-6.89,23.11-6.89.43-.16,1.15-.43,2.05-.78.85-.33,2.02-.79,3.42-1.37.97-.4,2.04-.85,3.2-1.35,1.42-8.77,4.64-18.74,13.48-22.09,2.65-1,5.31-1.35,7.93-1.04,12.33,1.5,18.7,18.93,20.79,24.56,1.47,3.96,2.23,7.29,2.62,9.27.16.7.33,1.4.49,2.1,1.79,7.64,2.49,15.05,2.72,17.44.25,2.56.5,5.91.63,9.85.02.93.04,1.87.05,2.8,0,.78,0,1.56,0,2.36-.06,4.77-.43,9.3-1.01,13.55-.44,3.87-1.3,7.74-3.1,11.19-3.53,6.79-10.8,10.55-18.41,9.63-.94-.11-1.87-.3-2.77-.56-9.1-2.58-12.58-10.8-14.07-14.31-.11-.25-.2-.49-.3-.74-.02,0-.09-.01-.18-.02-8.61-1.11-16.36-1.13-23.43-1.12-.64,0-1.17,0-1.28,0-.93,0-4.33.02-9.31.17-2.73.08-6.1.21-10,.42.43,2.22,1.05,4.36,1.9,6.39.81,1.94,1.85,3.95,2.35,5.94-7.31,3.41-15.81,6.61-23.83,7.77-4.85.7-5.07.9-6.54-4.09-1.85-6.28-3.14-13.06-6.35-18.76-2.48-4.41-6.48-10.77-5.83-16.11-.14-2.78.03-5.54.43-8.27.53-3.67,1.44-7.29,2.52-10.85.49-1.63,2.42-10.74,4.56-10.84,8.57-.43,20.47-1.62,26.87-2.75,2.84-.5,5.81-1.15,5.81-1.15s.74-.16,1.49-.34Z"/>
    <path class="st4" d="M49.82,274.43c-1.32,7.78-1.18,16.14,1.3,23.26,3.91-.57,7.9-2.02,11.68-3.44-2.4-5.72-3.41-12.29-2.89-18.82-3.64-.01-6.46-.99-10.09-1Z"/>
    <path class="st8" d="M34.91,259.11c-.97,7.36-.27,15.79,5.45,22.11,0,0,10.88-1.17,25.18-1.94,21.76-1.17,51.43-1.39,62.64,4.91l-2.47-34.42-2.31-32.09s-23.27,15.71-59.61,22.27c-7.49,1.36-15.54,2.32-24.03,2.69,0,0-3.67,7.42-4.85,16.46Z"/>
    <path class="st2" d="M34.91,259.11c30.49,2.57,61.45-.64,90.8-9.33l-2.31-32.09s-23.27,15.71-59.61,22.27c-7.49,1.36-15.54,2.32-24.03,2.69,0,0-3.67,7.42-4.85,16.46Z"/>
    <path class="st1" d="M142.89,282.55c-.58,3.4-1.38,6.88-3.97,9.55-2.6,2.66-7.46,4.29-12.03,2.99-5.64-1.6-8.25-6.52-10.05-10.76-7.07-16.68-11.76-33.83-10.11-50.61.71-7.27,1.35-24.46,10.73-28.02,12.61-4.78,19.28,14.78,21.12,21.06,5.51,18.78,7.44,37.47,4.32,55.79Z"/>
    <path class="st4" d="M109.49,235.27c-.13,1.97-.18,3.95-.14,5.93,0,0-.01,0,0,.01.14,8.48,1.69,16.93,4.13,25.27,1.55,5.3,3.47,10.57,5.62,15.76,1.61,3.88,3.92,8.35,8.72,9.54,3.88.96,7.96-.85,10.09-3.49,2.13-2.65,2.73-5.97,3.15-9.19,2.25-17.4.22-34.85-4.84-52.17-1.68-5.79-7.74-23.8-18.28-18.59-7.84,3.87-8.01,20.06-8.46,26.94Z"/>
    <path class="st1" d="M40.37,281.23s10.88-1.17,25.17-1.93c-4.16-12.61-4.79-26.39-1.75-39.32-7.48,1.36-15.53,2.32-24.03,2.69,0,0-12.12,24.51.61,38.57Z"/>
    <path class="st1" d="M44.86,276.15c-1.32,7.78-1.18,16.14,1.3,23.26,3.91-.57,7.9-2.02,11.68-3.44-2.4-5.72-3.41-12.29-2.89-18.82-3.64-.01-6.45-.99-10.09-1Z"/>
    <path class="st3" d="M38.83,252.94c.22-2.69.54-5.25,1.53-7.75,7.1.04,13.95-.48,21.01-1.23-.88,2.82-1.2,5.82-.93,8.77-7.35.33-14.27-.11-21.61.22Z"/>
    <path class="st3" d="M38.43,257.96c.02-.95-.29-2.03-.27-2.98,7.45.1,14.79-.05,22.24.05-.08.99-.15,1.98-.23,2.97-7.22-.04-14.53-.48-21.74-.03Z"/>
    <path class="st5" d="M109.36,241.21s-.01,0,0,.01c.14,8.48,1.69,16.93,4.13,25.27,5.72-2.8,11.32-5.18,17.04-7.98-.41-5.61-1.66-10.64-1.72-16.6-6.4-.79-13.02-1.15-19.47-1.17,0,.17,0,.3,0,.47Z"/>
    <path class="st8" d="M114.01,263.69c-1.41-2.55-1.61-5.6-1.93-8.44,6.54-.5,10.69-1.19,17.06-2.73.22,1.65.33,3.34.73,4.97-5,2.58-10.46,4.64-15.86,6.2Z"/>
    <path class="st0" d="M49.14,274.49c1.45-.13,3.01-.01,4.32.64.88.44.52,1.62-.42,1.61-1.58-.01-3.16-.12-4.74-.14-.62,0-1.83.12-1.81-.8.03-1,1.95-1.25,2.65-1.31Z"/>
    <path class="st0" d="M46.65,269.88c2.08-.27,4.78-.29,6.72.58.79.35.78,1.81-.22,1.84-1.05.04-2.07-.16-3.12-.23-1.12-.07-2.23-.04-3.35-.03-1.24,0-1.23-2.01-.03-2.16Z"/>
    <path class="st6" d="M31.84,237c-.71.85-1.04,1.95-1.01,3.06.03,1.18,0,2.53-.45,2.85-.54.4-1.57.77-1.96.27-2.53-3.19,1.31-8.56,4.58-9.59,2.44-.77,5.73-1.3,8.11-1.54,3.24-.33,4.97-.35,8.2-.37.54,0,.75.85.32,1.13-1.41.93-4.74.71-10.37,1.94-1.9.42-4.38.57-5.78,1.13-.79.32-1.26.68-1.62,1.12Z"/>
    <path class="st6" d="M112.03,294.47c2.01,1.42,3.4,3.62,5.44,5.11,2.14,1.57,4.56,2.77,7.09,3.59,2.39.77,4.92,1.18,7.44,1.22,1.64.03,4.89-1.12,6.2.08.1.09.13.2.09.33-.58,1.9-4.2,1.89-5.84,2.01-2.89.2-5.77-.13-8.56-.9-2.82-.78-5.48-2.02-7.9-3.67-2.17-1.48-5.05-3.64-5.93-6.2-.42-1.21.88-2.33,1.98-1.55Z"/>
    <path class="st6" d="M119.96,194.38c2.49-2.2,7.21-.96,10.05-.02,3.63,1.2,6.93,3.42,9.59,6.13,5.38,5.48,9.31,14.15,9.72,21.86.05.87-1.13,1.31-1.52.44-2.93-6.56-4.29-13.4-9.17-19-2.41-2.76-5.51-4.99-8.96-6.24-1.55-.56-3.16-.91-4.81-1.01-1.63-.09-3.1.29-4.65-.31-.79-.31-.84-1.33-.25-1.84Z"/>
    <path class="st6" d="M62.24,302.27c3.08.03,6.76.16,9.39-1.74,2.69-1.94,2.72-4.9,3.73-7.75.22-.63,1.15-.46,1.26.15.57,3.37-.33,7.21-2.98,9.49-2.95,2.55-6.8,2.99-10.55,3.1-.15.21-.34.41-.6.66-.56.53-1.44.15-1.74-.44-.38-.75-.38-1.19-.36-2.03.03-.96,1.01-1.45,1.83-1.44Z"/>
    <path class="st6" d="M196.99,254.68l-1.68,4.46c-.13.33-.46.54-.82.51l-28.19-2.84c-.97-.1-.93-1.52.04-1.57l29.87-1.62c.57-.03.98.53.78,1.06Z"/>
    <path class="st6" d="M190.49,274.47l-2.23,4.24c-.22.41-.73.55-1.13.32l-20.22-12.08c-.83-.5-.24-1.77.68-1.45l22.45,7.84c.47.16.68.7.45,1.14Z"/>
    <path class="st6" d="M179.18,232.84l1.42,4.88c.17.6-.15,1.23-.74,1.43l-18.54,6.45c-1.3.45-2.18-1.32-1.03-2.08l17.12-11.32c.66-.43,1.55-.11,1.77.65Z"/>
    <path class="st6" d="M169.25,284.59l1.6-3.31c.2-.41.04-.89-.35-1.11l-12.45-6.83c-.87-.48-1.71.68-.98,1.36l10.85,10.14c.42.39,1.09.26,1.34-.25Z"/>
  </g>
</svg>