<svg width="20" height="20" viewBox="0 0 20 20" fill="none" xmlns="http://www.w3.org/2000/svg">
<g clip-path="url(#clip0_1059_8754)">
<path d="M10.9329 14.1858L7.43369 12.2775C6.97685 12.7659 6.38367 13.1056 5.73125 13.2524C5.07882 13.3992 4.39731 13.3464 3.77529 13.1009C3.15326 12.8553 2.61949 12.4283 2.24333 11.8754C1.86717 11.3225 1.66602 10.6692 1.66602 10.0004C1.66602 9.33168 1.86717 8.67839 2.24333 8.12547C2.61949 7.57255 3.15326 7.14555 3.77529 6.89997C4.39731 6.6544 5.07882 6.6016 5.73125 6.74843C6.38367 6.89527 6.97685 7.23495 7.43369 7.72334L10.9337 5.81501C10.735 5.0284 10.83 4.19633 11.2009 3.47476C11.5718 2.75319 12.1931 2.19166 12.9484 1.89542C13.7037 1.59919 14.5411 1.58859 15.3037 1.86562C16.0662 2.14264 16.7016 2.68827 17.0906 3.40022C17.4796 4.11218 17.5957 4.94158 17.4169 5.73296C17.2382 6.52434 16.777 7.22337 16.1197 7.69902C15.4625 8.17466 14.6543 8.39427 13.8467 8.31667C13.0391 8.23907 12.2875 7.8696 11.7329 7.27751L8.23285 9.18584C8.36719 9.72031 8.36719 10.2797 8.23285 10.8142L11.732 12.7225C12.2867 12.1304 13.0383 11.7609 13.8459 11.6833C14.6534 11.6057 15.4616 11.8254 16.1189 12.301C16.7761 12.7766 17.2374 13.4757 17.4161 14.2671C17.5948 15.0584 17.4788 15.8878 17.0898 16.5998C16.7007 17.3117 16.0654 17.8574 15.3028 18.1344C14.5403 18.4114 13.7029 18.4008 12.9476 18.1046C12.1923 17.8084 11.5709 17.2468 11.2 16.5253C10.8291 15.8037 10.7341 14.9716 10.9329 14.185V14.1858ZM4.99952 11.6667C5.44155 11.6667 5.86547 11.4911 6.17803 11.1785C6.49059 10.866 6.66619 10.442 6.66619 10C6.66619 9.55798 6.49059 9.13406 6.17803 8.8215C5.86547 8.50894 5.44155 8.33334 4.99952 8.33334C4.55749 8.33334 4.13357 8.50894 3.82101 8.8215C3.50845 9.13406 3.33285 9.55798 3.33285 10C3.33285 10.442 3.50845 10.866 3.82101 11.1785C4.13357 11.4911 4.55749 11.6667 4.99952 11.6667ZM14.1662 6.66667C14.6082 6.66667 15.0321 6.49108 15.3447 6.17852C15.6573 5.86596 15.8329 5.44203 15.8329 5.00001C15.8329 4.55798 15.6573 4.13406 15.3447 3.8215C15.0321 3.50893 14.6082 3.33334 14.1662 3.33334C13.7242 3.33334 13.3002 3.50893 12.9877 3.8215C12.6751 4.13406 12.4995 4.55798 12.4995 5.00001C12.4995 5.44203 12.6751 5.86596 12.9877 6.17852C13.3002 6.49108 13.7242 6.66667 14.1662 6.66667ZM14.1662 16.6667C14.6082 16.6667 15.0321 16.4911 15.3447 16.1785C15.6573 15.866 15.8329 15.442 15.8329 15C15.8329 14.558 15.6573 14.1341 15.3447 13.8215C15.0321 13.5089 14.6082 13.3333 14.1662 13.3333C13.7242 13.3333 13.3002 13.5089 12.9877 13.8215C12.6751 14.1341 12.4995 14.558 12.4995 15C12.4995 15.442 12.6751 15.866 12.9877 16.1785C13.3002 16.4911 13.7242 16.6667 14.1662 16.6667Z" fill="#333333"/>
</g>
<defs>
<clipPath id="clip0_1059_8754">
<rect width="20" height="20" fill="white"/>
</clipPath>
</defs>
</svg>
