<svg width="16" height="16" viewBox="0 0 16 16" fill="none" xmlns="http://www.w3.org/2000/svg">
<g clip-path="url(#clip0_922_5261)">
<path d="M11.8943 10.4393L12.0117 10.5573L12.1303 10.4393C12.2696 10.3 12.435 10.1895 12.617 10.1142C12.799 10.0388 12.994 9.99998 13.191 9.99998C13.388 9.99998 13.583 10.0388 13.765 10.1142C13.947 10.1895 14.1124 10.3 14.2517 10.4393C14.3909 10.5786 14.5014 10.744 14.5768 10.926C14.6522 11.108 14.691 11.303 14.691 11.5C14.691 11.697 14.6522 11.892 14.5768 12.074C14.5014 12.256 14.3909 12.4214 14.2517 12.5607L12.0117 14.8L9.77299 12.5607C9.49169 12.2794 9.33365 11.8978 9.33365 11.5C9.33365 11.1022 9.49169 10.7206 9.77299 10.4393C10.0543 10.158 10.4358 9.99998 10.8337 9.99998C11.2315 9.99998 11.613 10.158 11.8943 10.4393ZM8.00033 9.33332V10.6667C6.93946 10.6667 5.92204 11.0881 5.1719 11.8382C4.42175 12.5884 4.00033 13.6058 4.00033 14.6667H2.66699C2.66701 13.281 3.20628 11.9498 4.17064 10.9549C5.13499 9.95989 6.44872 9.37929 7.83366 9.33599L8.00033 9.33332ZM8.00033 0.666656C10.2103 0.666656 12.0003 2.45666 12.0003 4.66666C12.0007 5.70168 11.5997 6.69652 10.8817 7.442C10.1637 8.18748 9.18463 8.62551 8.15033 8.66399L8.00033 8.66666C5.79033 8.66666 4.00033 6.87666 4.00033 4.66666C3.99996 3.63164 4.40093 2.63679 5.11893 1.89132C5.83693 1.14584 6.81602 0.707804 7.85033 0.669323L8.00033 0.666656ZM8.00033 1.99999C6.52699 1.99999 5.33366 3.19332 5.33366 4.66666C5.33366 6.13999 6.52699 7.33332 8.00033 7.33332C9.47366 7.33332 10.667 6.13999 10.667 4.66666C10.667 3.19332 9.47366 1.99999 8.00033 1.99999Z" fill="black"/>
</g>
<defs>
<clipPath id="clip0_922_5261">
<rect width="16" height="16" fill="white"/>
</clipPath>
</defs>
</svg>
